<?xml version="1.0" standalone="no"?><!DOCTYPE svg PUBLIC "-//W3C//DTD SVG 1.1//EN" "http://www.w3.org/Graphics/SVG/1.1/DTD/svg11.dtd"><svg t="1733122982618" class="icon" viewBox="0 0 1024 1024" version="1.1" xmlns="http://www.w3.org/2000/svg" p-id="13022" xmlns:xlink="http://www.w3.org/1999/xlink" width="200" height="200"><path d="M844.421565 977.830957H177.485913c-18.432 0-33.369043-14.914783-33.369043-33.346783V519.212522a33.346783 33.346783 0 0 1 66.715826 0V911.137391h600.375652V518.166261a33.346783 33.346783 0 0 1 66.693565 0v426.295652a33.346783 33.346783 0 0 1-33.480348 33.391304zM511.24313 119.874783L101.242435 522.128696a33.346783 33.346783 0 1 1-46.725565-47.593739L483.06087 54.071652c7.746783-7.590957 18.253913-10.640696 28.18226-9.193739 9.950609-1.446957 20.457739 1.602783 28.182261 9.193739l428.544 420.463305a33.346783 33.346783 0 1 1-46.703304 47.616L511.24313 119.874783z m-108.56626 459.909565a25.377391 25.377391 0 0 1 5.409391-27.737044l141.846261-144.384a25.421913 25.421913 0 0 1 35.550608 0.578783c9.750261 9.839304 10.017391 25.711304 0.578783 35.884522l-99.84 100.730434h114.799304c10.084174 0 19.166609 6.144 23.04 15.560348a25.377391 25.377391 0 0 1-5.364869 27.425392l-150.483478 151.774608a24.84313 24.84313 0 0 1-24.598261 7.590957 25.088 25.088 0 0 1-18.187131-18.342957c-2.226087-9.060174 0.667826-18.610087 7.524174-24.84313l107.52-108.78887h-114.866087a24.976696 24.976696 0 0 1-22.928695-15.471304z" fill="#999999" p-id="13023"></path></svg>