<?xml version="1.0" standalone="no"?><!DOCTYPE svg PUBLIC "-//W3C//DTD SVG 1.1//EN" "http://www.w3.org/Graphics/SVG/1.1/DTD/svg11.dtd"><svg t="1733122258247" class="icon" viewBox="0 0 1024 1024" version="1.1" xmlns="http://www.w3.org/2000/svg" p-id="4294" xmlns:xlink="http://www.w3.org/1999/xlink" width="200" height="200"><path d="M560 32a16 16 0 1 0 0-32 16 16 0 0 0 0 32z" fill="#4B5154" p-id="4295"></path><path d="M672.736 557.824l-2.336 34.624A204.864 204.864 0 0 1 544 403.2V16.384h32v367.456a204.672 204.672 0 0 0 96.736 173.984z m205.824 9.344A204.8 204.8 0 0 0 992 383.84V16.384h32V403.2a204.896 204.896 0 0 1-142.976 195.296l-2.464-31.328zM260.032 628.864l-14.176-0.512c4.672 0.32 9.408 0.512 14.176 0.512z m-102.24-26.368C62.656 551.104 0 431.84 0 308.896 0 145.6 110.464 0 261.024 0s259.808 142.016 259.808 308.896c0 123.168-59.872 238.848-151.68 290.976l-3.904-50.016c68.32-46.4 115.776-136.384 115.776-239.936 0-151.2-92.704-268.704-220.384-268.704-127.68 0-219.424 119.36-219.424 268.704 0 104.896 49.216 197.344 119.904 243.04l-3.328 49.536z" fill="#4B5154" p-id="4296"></path><path d="M406.656 547.904l23.712 316.032a147.2 147.2 0 0 1-146.784 158.208H243.2a147.2 147.2 0 0 1-146.784-158.272l24.32-321.984 38.816 36.416-21.888 292.768a102.4 102.4 0 0 0 102.112 110.016h48.736a102.4 102.4 0 0 0 102.08-110.496l-23.232-292.8 39.296-29.888zM918.656 547.904l23.712 316.032a147.2 147.2 0 0 1-146.784 158.208H755.2a147.2 147.2 0 0 1-146.784-158.272l24.32-321.984 38.816 36.416-21.888 292.768a102.4 102.4 0 0 0 102.112 110.016h48.736a102.4 102.4 0 0 0 102.08-110.496l-23.232-292.8 39.296-29.888z" fill="#4B5154" p-id="4297"></path><path d="M704 0m16 0l0 0q16 0 16 16l0 256q0 16-16 16l0 0q-16 0-16-16l0-256q0-16 16-16Z" fill="#71B5F5" p-id="4298"></path><path d="M832 0m16 0l0 0q16 0 16 16l0 256q0 16-16 16l0 0q-16 0-16-16l0-256q0-16 16-16Z" fill="#71B5F5" p-id="4299"></path><path d="M1008 32a16 16 0 1 0 0-32 16 16 0 0 0 0 32z" fill="#4B5154" p-id="4300"></path></svg>