<?xml version="1.0" standalone="no"?><!DOCTYPE svg PUBLIC "-//W3C//DTD SVG 1.1//EN" "http://www.w3.org/Graphics/SVG/1.1/DTD/svg11.dtd"><svg t="1733126695328" class="icon" viewBox="0 0 1024 1024" version="1.1" xmlns="http://www.w3.org/2000/svg" p-id="11834" xmlns:xlink="http://www.w3.org/1999/xlink" width="200" height="200"><path d="M947.067328 934.75542c-26.037003 25.237801-68.64645 22.858614-94.744851-5.276167L699.87032 755.561202c-16.692171-17.998933-24.355711-37.219693-23.604604-52.719712-49.561789 41.072441-113.856118 65.847707-184.132694 65.847707-58.021461 0-111.953791-16.899902-156.898423-45.88505L208.34156 722.804147l0-66.813708 54.793954 0c-19.922748-26.355251-35.139312-56.285934-44.419675-88.618317l-10.374278 0 0-67.277266 0.076748 0c-0.054235-2.237971-0.076748-4.475941-0.076748-6.740518 0-28.504194 4.467755-56.003502 12.753465-81.880869l-12.753465 0 0-67.263963 45.214784 0c22.826891-34.30941 53.305043-63.362096 89.093131-84.910878L208.34156 259.298628l0-67.286476 554.285059 0 0 67.286476L641.611451 259.298628c35.783994 21.548782 66.266239 50.600445 89.093131 84.910878l31.921014 0 0 65.653279c8.631588 26.345018 13.301957 54.391794 13.301957 83.492576 0 68.195172-25.551956 130.577964-67.877947 178.661076 15.97995-0.711198 35.797297 6.695492 54.338582 22.89136l179.27506 147.94654C970.667839 868.13614 973.068516 909.503293 947.067328 934.75542L947.067328 934.75542zM661.490198 411.473469l-1.032516 0c-14.078647-26.928303-34.795481-50.02637-60.063981-67.263963l1.998517 0c-31.052227-21.643949-69.117171-34.397415-110.26022-34.397415-41.150212 0-79.216179 12.753465-110.263289 34.397415l1.02126 0c-25.269523 17.238616-45.979194 40.33566-60.065004 67.263963l-0.044002 0c-12.691043 24.645306-19.847024 52.458769-19.847024 81.880869 0 101.375875 84.715427 183.556573 189.199083 183.556573 77.337389 0 143.828756-45.042869 173.167968-109.538789l-0.021489 0c9.271154-20.716834 14.71412-43.430138 15.456017-67.277266l0.454348 0c0.083911-2.237971 0.137123-4.475941 0.137123-6.740518C681.324942 463.931215 674.181241 436.118775 661.490198 411.473469L661.490198 411.473469zM817.393967 125.759215 140.609946 125.759215l0 759.831458 611.113345 0 66.178235 66.266239L72.413751 951.856913 72.413751 59.514465l812.712853 0 0 678.907381-67.731614-55.794747L817.39499 125.759215 817.393967 125.759215zM817.393967 125.759215" fill="#272636" p-id="11835"></path><path d="M392.081305 445.379697l0-14.878872 63.646576 0 0 14.878872c-7.722892 13.780865-15.70468 25.624611-23.970948 35.542494l0 6.612605c1.098008 0.555655 2.750647 1.653663 4.959965 3.306302 2.196015 1.65264 3.848655 2.76395 4.959965 3.306302 3.848655-4.40431 9.092076-11.843746 15.70468-22.318308 1.653663-2.196015 2.750647-3.848655 3.306302-4.959965l13.225209 8.266267c-1.110287 1.110287-2.479471 3.306302-4.133134 6.612605-7.167237 9.376555-12.682857 16.260335-16.531512 20.664645 6.612605 4.959965 13.225209 9.918907 19.837814 14.878872l-9.918907 12.398378c-6.070252-4.959965-14.878872-11.843746-26.450419-20.664645-2.208295-1.653663-3.861958-3.022847-4.959965-4.133134l0 82.658581-14.878872 0 0-87.617523c-7.16826 7.722892-15.433504 15.70468-24.796756 23.970948-1.653663-5.501294-3.306302-11.288091-4.959965-17.358343 19.282159-16.531512 36.369326-36.911678 51.248198-61.167105L392.081305 445.378673zM412.74595 399.091464l14.052041-6.612605c4.958942 7.722892 10.190083 16.815991 15.70468 27.27725l-14.878872 7.439436C422.109202 416.733263 417.149237 407.356708 412.74595 399.091464zM464.819956 410.66301l111.588471 0c-1.111311 44.635593-2.76395 90.381473-4.959965 137.212058 0 24.242124-10.745738 35.814694-32.236192 34.716686-8.266267 0.542352-17.913998 0.826831-28.92989 0.826831-0.555655-6.612605-1.653663-12.682857-3.306302-18.185174 5.502317 0.542352 15.150048 0.826831 28.92989 0.826831 12.669554 1.098008 19.010983-5.502317 19.010983-19.837814 2.196015-29.757744 3.849678-69.704548 4.959965-119.854738l-45.462424 0c0 4.417613-0.283456 13.225209-0.826831 26.451442-0.555655 13.780865-1.110287 22.87294-1.65264 27.27725-0.555655 45.74588-19.012006 81.830727-55.381331 108.282169-7.16826-7.16826-11.30037-11.301394-12.398378-12.398378 34.161031-24.242124 51.248198-57.305147 51.248198-99.190093 1.098008-24.242124 1.65264-41.044812 1.65264-50.421366L464.819956 426.368714 464.819956 410.66301z" fill="#272636" p-id="11836"></path></svg>