<?xml version="1.0" standalone="no"?><!DOCTYPE svg PUBLIC "-//W3C//DTD SVG 1.1//EN" "http://www.w3.org/Graphics/SVG/1.1/DTD/svg11.dtd"><svg t="1733122506277" class="icon" viewBox="0 0 1024 1024" version="1.1" xmlns="http://www.w3.org/2000/svg" p-id="7595" xmlns:xlink="http://www.w3.org/1999/xlink" width="200" height="200"><path d="M540.404 860.26c0.11-13.84-11.36-25.47-25.25-25.6-13.87-0.12-25.54 11.33-25.67 25.18-0.12 13.85 11.33 25.45 25.25 25.56 13.93 0.11 25.56-11.28 25.67-25.14z m350.09-349.15c-0.03-13.86-11.59-25.35-25.48-25.32-13.88 0.03-25.46 11.6-25.43 25.42 0.03 13.82 11.64 25.35 25.53 25.32 13.9-0.03 25.41-11.55 25.38-25.42z m-700.18 0.33c0.17-13.82-11.28-25.49-25.19-25.66-13.89-0.17-25.57 11.22-25.73 25.08-0.16 13.87 11.24 25.5 25.15 25.66 13.89 0.16 25.6-11.24 25.77-25.08z m350.09-348.46c0.41-13.82-10.85-25.69-24.73-26.07-13.91-0.38-25.78 10.79-26.18 24.63-0.4 13.82 10.85 25.69 24.73 26.11 13.83 0.41 25.77-10.84 26.18-24.67z m281.07 726.15c-13.9-0.13-25.56 11.28-25.69 25.14-0.13 13.85 11.32 25.47 25.23 25.6 13.9 0.13 25.56-11.28 25.69-25.14 0.13-13.85-11.32-25.47-25.23-25.6z m-587.37-781.1c0.13-13.85-11.32-25.47-25.23-25.6-13.9-0.13-25.56 11.28-25.69 25.14-0.13 13.85 11.32 25.47 25.23 25.6 13.9 0.13 25.56-11.28 25.69-25.14z m139.27 544.12h283.61V369.99H373.374v282.16zM217.764 46.03c19.44 5.2 35.73 14.55 45.51 33.12 16.6 31.53 3.32 70.3-29.41 84.85-3.99 1.77-7.17 2.87-7.15 8.58 0.24 67.82 0.16 135.64 0.19 203.46 0 1.15 0.28 2.29 0.48 3.84h108.9c0-7.97-0.05-16 0.01-24.04 0.13-16.11 6.63-22.69 22.76-22.72 42.23-0.07 84.46-0.03 126.7-0.03h10.98v-19.37c0-28.16-0.13-56.32 0.11-84.47 0.05-5.43-1.08-8.39-6.68-10.79-27.29-11.69-41.83-40.55-35.58-69.24 6.11-28.08 31.52-48.59 60.28-48.65 28.73-0.06 54.21 20.36 60.45 48.45 6.35 28.59-8.34 57.35-35.18 69.74-2.86 1.32-6.6 4.96-6.63 7.56-0.44 35.1-0.3 70.22-0.3 106.05h76.57v-9.42c0-36.94-0.02-73.88 0.01-110.82 0.01-18.43 6.06-24.4 24.7-24.41 35.85-0.02 71.7-0.05 107.55 0.05 4.2 0.01 8.63 0.2 12.54 1.51 7.7 2.58 11.79 8.64 11.76 16.62-0.03 7.97-4.12 14.01-11.86 16.54-3.93 1.29-8.34 1.53-12.54 1.54-31.54 0.12-63.08 0.07-95.15 0.07V333.1c8.15 0 15.97-0.05 23.79 0.01 16.55 0.12 23.03 6.62 23.05 23.35 0.05 41.78 0.02 83.57 0.02 125.35v9.9c1.21 0.51 2 1.13 2.79 1.13 34.63 0.08 69.27 0.23 103.9-0.09 2.6-0.03 6.38-2.89 7.56-5.39 11.59-24.57 34.81-39.39 60.09-37.78 26.54 1.69 48.13 18.44 55.95 43.42 7.83 24.99-0.4 50.58-21.61 67.24-30.4 23.87-77.08 12.57-93.12-23.12-2.94-6.55-6.24-7.99-12.74-7.92-30.99 0.31-61.98 0.14-92.97 0.14h-9.37v76.31h9.45c37.07 0 74.13-0.02 111.2 0.01 18.67 0.01 24.73 5.97 24.74 24.38 0.02 72.06 0.09 144.12-0.13 216.18-0.02 6.54 1.49 9.81 8.02 12.68 26.46 11.63 40.57 41.1 34.13 69.2-6.42 28.05-32.13 48.43-60.72 48.14-28.8-0.29-54.09-20.95-60-49.03-5.98-28.39 8.52-57.07 35.09-68.79 4.45-1.96 7.35-3.46 7.32-9.4-0.27-67.22-0.17-134.43-0.18-201.65 0-1.46-0.19-2.91-0.32-4.86h-109.1c0 6.86 0.01 13.97 0 21.08-0.02 19.9-5.67 25.63-25.33 25.64-41.32 0.01-82.64 0-123.96 0h-10.42c-0.28 2.47-0.7 4.47-0.7 6.48-0.04 32.7 0.08 65.4-0.14 98.1-0.04 5.25 1.49 7.8 6.53 9.97 27.36 11.81 41.92 40.4 35.77 69.15-6.01 28.08-31.36 48.66-60.13 48.82-29.05 0.17-54.86-20.72-60.76-49.17-5.99-28.87 8.65-56.67 36.03-69.24 2.62-1.2 5.93-4.71 5.95-7.17 0.34-34.81 0.17-69.63 0.1-104.45 0-0.53-0.42-1.06-0.84-2.04H420.144v9.51c0 37.24 0.03 74.48-0.01 111.73-0.02 17.34-6.31 23.65-23.61 23.67-36.46 0.05-72.92 0.01-109.38 0.01-0.91 0-1.82 0.02-2.73-0.01-12.58-0.34-20.86-7.46-20.95-18.01-0.09-10.54 8.2-18.18 20.7-18.26 29.47-0.19 58.94-0.07 88.41-0.07h10.5V689.21c-8.25 0-16.36 0.07-24.47-0.02-15.39-0.17-22.26-6.91-22.3-22.26-0.09-42.09-0.03-84.17-0.03-126.26v-10.63c-2.58-0.26-4.88-0.68-7.17-0.69-32.51-0.04-65.02 0.05-97.53-0.12-5.05-0.03-7.92 0.99-10.19 6.24-11.88 27.47-40.28 41.94-69.21 35.93-28.53-5.93-49.47-31.72-49.23-60.64 0.23-28.69 20.93-53.91 49.11-59.84 28.9-6.08 57.17 8.53 69.6 35.65 1.16 2.53 4.04 6.1 6.16 6.12 35.79 0.38 71.58 0.27 107.92 0.27v-76.29H304.644c-30.38 0-60.77 0.05-91.15-0.02-16.6-0.04-23.07-6.56-23.08-23.28-0.04-72.06-0.1-144.12 0.12-216.18 0.02-7.04-1.39-10.9-8.66-14.11-22.68-10.02-36.78-34.81-34.96-58.8 1.98-26.2 18.55-47.27 43.25-55.05 3.15-0.99 6.26-2.13 9.39-3.2h18.21z" fill="#2592FF" p-id="7596"></path><path d="M916.124 236.37c13.96 0.24 25.77-11.15 26.01-25.09 0.24-13.93-11.17-25.72-25.14-25.96-13.96-0.24-25.77 11.15-26.01 25.09-0.24 13.93 11.18 25.72 25.14 25.96z m62.71-16.38c-5.39 20.21-15.46 36.75-35.02 46.5-31.29 15.58-70.11 1.36-84.31-31.22-13.88-31.84 2.2-70.06 34.59-82.22 33.13-12.44 70.14 4.66 81.03 37.45 1.24 3.74 2.47 7.48 3.71 11.22v18.27z" fill="#2592FF" p-id="7597"></path><path d="M108.6 839.35c14.05 0.05 25.79-11.62 25.84-25.7 0.05-14.08-11.59-25.84-25.65-25.89-14.05-0.05-25.79 11.62-25.84 25.7-0.06 14.08 11.59 25.84 25.65 25.89m-62.59-35.03c5.42-20.42 15.56-37.14 35.25-46.99 31.5-15.75 70.58-1.37 84.87 31.55 13.97 32.18-2.21 70.8-34.82 83.09-33.36 12.57-70.61-4.71-81.57-37.85-1.25-3.78-2.49-7.56-3.73-11.33v-18.47M814.39 227.55c-9.26 0.27-17.25-7.36-17.45-16.66-0.2-9.4 7.22-17.19 16.62-17.46 9.26-0.26 17.29 7.37 17.5 16.64 0.23 9.27-7.35 17.2-16.67 17.48M210.62 830.57c-9.33-0.24-16.88-8.11-16.7-17.41 0.18-9.26 8.21-16.96 17.43-16.71 9.31 0.25 16.89 8.16 16.7 17.43-0.19 9.28-8.17 16.93-17.43 16.69" fill="#2592FF" p-id="7598"></path><path d="M459.09 565.32h95.59v-95.1h-95.59v95.1z m-37.59-47.67c0-20.71-0.07-41.41 0.02-62.12 0.07-16.39 6.76-23.1 23.21-23.12 41.41-0.07 82.82-0.07 124.23 0 16.39 0.03 23.1 6.76 23.13 23.2 0.07 41.41 0.07 82.82 0 124.23-0.03 16.39-6.76 23.1-23.2 23.12-41.41 0.07-82.82 0.07-124.23 0-16.39-0.03-23.06-6.76-23.13-23.2-0.09-20.7-0.03-41.41-0.03-62.11z" fill="#2592FF" p-id="7599"></path></svg>