<?xml version="1.0" standalone="no"?><!DOCTYPE svg PUBLIC "-//W3C//DTD SVG 1.1//EN" "http://www.w3.org/Graphics/SVG/1.1/DTD/svg11.dtd"><svg t="1733122955020" class="icon" viewBox="0 0 1024 1024" version="1.1" xmlns="http://www.w3.org/2000/svg" p-id="11945" xmlns:xlink="http://www.w3.org/1999/xlink" width="200" height="200"><path d="M1008 720H144V16h864v704z m-832-32h800V48H176v640z" fill="#1D1F21" p-id="11946"></path><path d="M336 32h32v672h-32zM256 432c-35.2 0-64-28.8-64-64s28.8-64 64-64 64 28.8 64 64-28.8 64-64 64z m0-96c-17.6 0-32 14.4-32 32s14.4 32 32 32 32-14.4 32-32-14.4-32-32-32zM208 112h32v128h-32zM272 112h32v128h-32zM208 496h32v128h-32zM272 496h32v128h-32zM176 416H80v-96h96v96z m-64-32h32v-32H112v32z" fill="#1D1F21" p-id="11947"></path><path d="M928 976H192v-32h736c27.2 0 48-20.8 48-48v-16c0-27.2-20.8-48-48-48H96c-44.8 0-80-35.2-80-80V432c0-44.8 35.2-80 80-80v32c-27.2 0-48 20.8-48 48v320c0 27.2 20.8 48 48 48h832c44.8 0 80 35.2 80 80v16c0 44.8-35.2 80-80 80z" fill="#1D1F21" p-id="11948"></path><path d="M160 1008H16v-96h144c27.2 0 48 20.8 48 48s-20.8 48-48 48z m-112-32h112c9.6 0 16-6.4 16-16s-6.4-16-16-16H48v32z" fill="#1D1F21" p-id="11949"></path><path d="M80 928h32v64H80zM928 656H400V64h528v592z m-496-32h464V96H432v528z" fill="#1D1F21" p-id="11950"></path></svg>