<?xml version="1.0" standalone="no"?><!DOCTYPE svg PUBLIC "-//W3C//DTD SVG 1.1//EN" "http://www.w3.org/Graphics/SVG/1.1/DTD/svg11.dtd"><svg t="1733123153027" class="icon" viewBox="0 0 1024 1024" version="1.1" xmlns="http://www.w3.org/2000/svg" p-id="20842" xmlns:xlink="http://www.w3.org/1999/xlink" width="200" height="200"><path d="M63.9987 829.283955h895.9818a63.9987 63.9987 0 0 1 63.9987 63.9987v63.9987a63.9987 63.9987 0 0 1-63.9987 63.9987H63.9987a63.9987 63.9987 0 0 1-63.9987-63.9987v-63.9987a63.9987 63.9987 0 0 1 63.9987-63.9987z m0 31.99935a31.99935 31.99935 0 0 0-31.99935 31.99935v63.9987a31.99935 31.99935 0 0 0 31.99935 31.99935h895.9818a31.99935 31.99935 0 0 0 31.99935-31.99935v-63.9987a31.99935 31.99935 0 0 0-31.99935-31.99935H63.9987zM95.99805 317.294355h31.99935v511.9896H95.99805zM767.9844 317.294355h31.99935v511.9896h-31.99935z" fill="#4B5154" p-id="20843"></path><path d="M415.99155 317.294355h31.99935v511.9896h-31.99935z" fill="#71B5F5" p-id="20844"></path><path d="M223.99545 317.294355h31.99935v511.9896H223.99545zM895.9818 317.294355h31.99935v511.9896h-31.99935z" fill="#4B5154" p-id="20845"></path><path d="M575.9883 317.294355h31.99935v511.9896h-31.99935z" fill="#71B5F5" p-id="20846"></path><path d="M519.253453 2.260754l470.774437 323.673425a12.79974 12.79974 0 0 1-7.263852 23.359526H41.215163a12.79974 12.79974 0 0 1-7.263853-23.359526L504.725748 2.260754a12.79974 12.79974 0 0 1 14.527705 0zM511.9896 29.300205l-415.99155 287.99415h831.9831l-415.99155-287.99415z" fill="#4B5154" p-id="20847"></path></svg>