<?xml version="1.0" standalone="no"?><!DOCTYPE svg PUBLIC "-//W3C//DTD SVG 1.1//EN" "http://www.w3.org/Graphics/SVG/1.1/DTD/svg11.dtd"><svg t="1733123049129" class="icon" viewBox="0 0 1720 1024" version="1.1" xmlns="http://www.w3.org/2000/svg" p-id="16370" xmlns:xlink="http://www.w3.org/1999/xlink" width="335.9375" height="200"><path d="M39.653869 1023.887764a39.653869 39.653869 0 0 1-39.662503-39.619335 39.550267 39.550267 0 0 1 39.662503-39.498465h64.483943a42.736044 42.736044 0 0 1 40.38772-29.138212h156.690196v-258.833659a149.852429 149.852429 0 0 1-139.64758-148.652366V149.741401A150.413609 150.413609 0 0 1 312.577472 0.001209h28.059019a150.335907 150.335907 0 0 1 111.519492 49.582445l651.021043-8.71988a150.603547 150.603547 0 0 1 91.670974-31.417468h126.377822a150.379075 150.379075 0 0 1 151.009323 149.748826v28.369827l79.195502 671.594779 16.015225 63.171644h-669.60043L1000.627787 541.488475c2.391492-116.276575-118.616265-113.099431-118.616266-113.099431l-0.129503-0.250372h-390.236203v80.032955a150.120069 150.120069 0 0 1-120.688316 146.709819v84.876374h-44.428219v175.925733h-25.365353v0.448944h25.365353v-0.483478H499.536874a43.012318 43.012318 0 0 1 40.50859 29.138212h1140.232199a39.550267 39.550267 0 0 1 39.662502 39.498465 39.662503 39.662503 0 0 1-39.662502 39.619335z m1025.760034-727.557414a186.544992 186.544992 0 0 0 187.24431 185.871576 186.553626 186.553626 0 0 0 187.347911-185.871576 186.536359 186.536359 0 0 0-187.347911-185.750706 186.484557 186.484557 0 0 0-187.24431 185.742073z m-753.07817-11.638017v73.592331a19.494543 19.494543 0 0 0 19.546344 19.399575 19.477276 19.477276 0 0 0 19.434109-19.399575v-73.592331a19.373673 19.373673 0 0 0-19.434109-19.278705 19.390941 19.390941 0 0 0-19.537711 19.270071z m0-162.474671v73.480096a19.494543 19.494543 0 0 0 19.546344 19.399574 19.477276 19.477276 0 0 0 19.434109-19.399574v-73.505997a19.399574 19.399574 0 0 0-19.434109-19.399574 19.416841 19.416841 0 0 0-19.537711 19.399574z m796.012786 171.980203a144.076588 144.076588 0 0 1 144.283793-143.990252 144.18019 144.18019 0 0 1 144.413296 143.990252 144.111122 144.111122 0 0 1-144.413296 143.860749 144.050687 144.050687 0 0 1-144.257892-143.869383z" fill="#006FFE" p-id="16371"></path></svg>