<?xml version="1.0" standalone="no"?><!DOCTYPE svg PUBLIC "-//W3C//DTD SVG 1.1//EN" "http://www.w3.org/Graphics/SVG/1.1/DTD/svg11.dtd"><svg t="1733122931149" class="icon" viewBox="0 0 1024 1024" version="1.1" xmlns="http://www.w3.org/2000/svg" p-id="10867" xmlns:xlink="http://www.w3.org/1999/xlink" width="200" height="200"><path d="M627.6 489.2c-3.8-7-6.4-14-8.6-20.9-14-0.5-34.9-0.5-42.4 0-11.3 1.1-66.6-2.7-66.6-2.7s-55.3 3.8-66.6 2.7c-6.4-0.5-24.2-0.5-37.6 0-2.2 7-4.8 14-9.1 21.5-26.3 48.9-69.2 125.6-75.2 161-6.4 34.9-88.6 231.4-73 236.7 5.4 1.6 53.7 10.7 90.7 10.7l-1.1 10.2s34.4 2.7 51.5 8c17.2 5.4 71.9 9.1 81.1 5.4 5.9-2.7 18.8-4.8 31.7-4.8v1.6c2.2-0.5 4.3-1.1 7-1.6 4.3 0.5 8.1 1.1 11.8 1.6V916c12.9 0 25.8 2.1 31.7 4.8 9.1 3.8 63.3 0 81.1-5.4 17.2-5.4 51.5-8.1 51.5-8.1l-1.1-10.2c37 0 85.4-9.1 90.7-10.7 15.6-5.4-66.6-201.8-72.5-237.3-6.2-34.8-48.7-111-75-159.9zM384.5 114.5c-29.5 4.3-66.6 24.2-78.9 26.3 0 0 12.9 36.5 20.4 47.8 8.1 11.3 10.7 26.8 14 39.2 3.2 12.9 11.3 37.6 11.3 47.2 0 9.7 29-0.5 34.4 22 5.4 22.5 9.1 17.2 14.5 57.4 2.7 22 9.1 45.6 10.2 70.3 10.2 0 24.2-1.1 32.7-2.1 14.5-2.7 66 0 66 0s51.5-2.7 66 0c10.2 1.6 27.9 2.1 37.6 2.1 1.1-24.7 7.5-48.3 10.2-70.9 5.4-40.8 9.1-34.9 14.5-57.4s34.4-12.3 34.4-22 8.6-34.4 11.3-47.2c3.2-12.9 5.9-27.9 14-39.2 8.1-11.3 20.4-47.8 20.4-47.8-12.3-1.6-48.9-22-78.9-26.3-29.5-4.3-56.4-14-56.4-14 1.6 10.2-9.1 17.7-15.6 34.4-6.4 17.2-15.6 29-23.6 46.7-8.1 17.7-24.7 43.5-32.2 46.2v0.5c-7.5-2.7-24.2-28.4-31.7-46.2-8.1-17.7-17.2-29.5-23.6-46.7-6.4-17.2-17.7-24.2-15.6-34.4 0.9 0.2-25.9 9.8-55.4 14.1z m0 0" p-id="10868"></path></svg>