<?xml version="1.0" standalone="no"?><!DOCTYPE svg PUBLIC "-//W3C//DTD SVG 1.1//EN" "http://www.w3.org/Graphics/SVG/1.1/DTD/svg11.dtd"><svg t="1733123133046" class="icon" viewBox="0 0 1024 1024" version="1.1" xmlns="http://www.w3.org/2000/svg" p-id="19769" xmlns:xlink="http://www.w3.org/1999/xlink" width="200" height="200"><path d="M849.92 776.96L795.2 336a121.28 121.28 0 0 0-119.04-104.96 17.92 17.92 0 0 0-10.24 3.52 20.8 20.8 0 0 1-3.2 4.8l2.56 16a12.8 12.8 0 0 0 10.88 5.44 90.56 90.56 0 0 1 88.96 79.36l45.44 361.6-18.56-12.8a187.52 187.52 0 0 0-92.48-24.96h-9.6v-10.24a61.76 61.76 0 0 0-3.2-13.76c-1.6-17.28-43.2-390.08-43.2-402.24v-3.2a136 136 0 0 0-126.4-112.64A138.24 138.24 0 0 0 384 233.6l-42.24 427.2-11.84-2.24h-2.56a180.48 180.48 0 0 0-94.4 25.28l-19.2 11.2 44.8-355.2c6.72-66.24 88.32-67.84 88.96-67.84a15.68 15.68 0 0 0 10.56-4.8l2.24-18.56a17.28 17.28 0 0 0-12.8-6.4c-43.2 0-111.04 24.96-118.4 94.4L176.32 755.2a90.24 90.24 0 0 0-2.56 22.4c0 66.24 68.8 120 153.6 120a176 176 0 0 0 89.92-22.4 128 128 0 0 0 49.6-45.44 13.76 13.76 0 0 0 1.6-12.16l-4.16-16 16 3.2a221.76 221.76 0 0 0 64 0l17.6-1.6 19.2-6.4a152 152 0 0 0 103.04-96l2.24-7.68h8.32c67.52 0 124.48 41.28 124.48 89.6a76.16 76.16 0 0 1-23.04 52.48 146.24 146.24 0 0 1-100.8 37.44 160 160 0 0 1-74.56-18.24 128 128 0 0 1-39.68-35.84 18.56 18.56 0 0 0-3.2-3.84l-14.72-10.56-7.68 16a13.12 13.12 0 0 0 0 14.4A145.28 145.28 0 0 0 608 880.64a183.36 183.36 0 0 0 89.6 22.4 174.08 174.08 0 0 0 121.6-45.76 101.44 101.44 0 0 0 32-73.92v-2.56c-0.64-2.56-0.64-3.2-1.28-3.84z m-435.84-544a104 104 0 0 1 100.8-80.64 102.4 102.4 0 0 1 96 80.32l36.16 347.52-19.2-12.8a203.2 203.2 0 0 0-111.36-32 209.6 209.6 0 0 0-114.88 33.6l-19.2 14.08z m28.8 580.48l-2.56 2.56a106.88 106.88 0 0 1-39.04 35.2 144.64 144.64 0 0 1-73.92 18.24c-66.88 0-122.24-39.68-123.2-88.64v-16.96a122.56 122.56 0 0 1 121.6-73.6 6.4 6.4 0 0 0 3.2 0l12.8-3.84 1.92 11.2a144.32 144.32 0 0 0 96 98.88l17.28 5.12z m216.64-136c-3.84 56.32-68.16 101.76-143.36 101.76s-144-48.96-144-107.2 65.92-106.56 144-106.56a147.84 147.84 0 0 1 139.2 79.36l2.88 24.64v1.6z" fill="#339939" p-id="19770"></path><path d="M585.6 448c1.6 14.4-3.84 21.44-16.96 23.04a18.24 18.24 0 0 1-15.36-3.2 25.6 25.6 0 0 1-5.76-15.36l-16.64-173.44c0-14.4 3.84-21.44 17.28-23.04a21.12 21.12 0 0 1 14.4 3.2 24 24 0 0 1 6.4 15.68z" fill="#339939" opacity=".6" p-id="19771"></path></svg>