<?xml version="1.0" standalone="no"?><!DOCTYPE svg PUBLIC "-//W3C//DTD SVG 1.1//EN" "http://www.w3.org/Graphics/SVG/1.1/DTD/svg11.dtd"><svg t="1733122906559" class="icon" viewBox="0 0 1024 1024" version="1.1" xmlns="http://www.w3.org/2000/svg" p-id="9795" xmlns:xlink="http://www.w3.org/1999/xlink" width="200" height="200"><path d="M118.4 944.304a41.072 41.072 0 0 0-38.24 26.288 41.072 41.072 0 0 0 38.24 26.288h813.744a41.072 41.072 0 0 0 38.272-26.288 41.072 41.072 0 0 0-38.272-26.288zM439.936 554.24h475.072v46.192H439.936zM132.992 375.152h277.136v48H132.992z" fill="#5FB8E0" p-id="9796"></path><path d="M932.944 886.528h-1.136V514.752a16 16 0 0 0-16-16h-59.44v-193.6a16 16 0 0 0-16-16H586.64a1.136 1.136 0 0 1-1.136-1.152 33.168 33.168 0 0 0-33.136-33.152h-33.6a47.616 47.616 0 0 1-47.568-47.568v-19.904a16 16 0 0 0-32 0v19.856a79.664 79.664 0 0 0 79.568 79.568h33.6a1.152 1.152 0 0 1 1.136 1.152 33.168 33.168 0 0 0 33.136 33.136h73.168v177.6H446.08a16 16 0 0 0-16 16v371.84h-22.848V436.224h3.712a16 16 0 0 0 16-16v-84.56a16 16 0 0 0-16-16H133.808a16 16 0 0 0-16 16v84.56a16 16 0 0 0 16 16h3.696v450.304H119.232a57.216 57.216 0 0 0-57.152 57.136v9.136a57.232 57.232 0 0 0 57.152 57.152h813.712a57.216 57.216 0 0 0 57.136-57.152v-9.136a57.2 57.2 0 0 0-57.136-57.136z m-108.576-522.304h-132.56v-43.2h132.56z m-132.56 32h132.56v102.528h-132.56z m208 134.528v50.752H462.08v-50.752zM462.08 613.504h437.728v273.024H814.4v-57.168a16 16 0 0 0-32 0v57.168h-85.456v-57.168a16 16 0 0 0-32 0v57.168h-85.44v-57.168a16 16 0 0 0-32 0v57.168H462.08z m-292.576 30.16h205.728v48.976H169.504z m-19.696-292h245.136v52.56H149.808z m225.424 84.56v175.44H169.504V436.224zM169.504 724.64h205.728v161.888H169.504zM958.08 952.8a25.168 25.168 0 0 1-25.136 25.152H119.232A25.184 25.184 0 0 1 94.08 952.8v-9.136a25.168 25.168 0 0 1 25.152-25.136h813.712a25.168 25.168 0 0 1 25.136 25.136zM836.944 273.952a16 16 0 0 0 16-16v-62.4a111.408 111.408 0 0 0-111.296-111.296h-4.704a12.032 12.032 0 0 1-12-12 44.048 44.048 0 0 0-44-44h-105.136a16 16 0 0 0 0 32h105.136a12.032 12.032 0 0 1 12 12 44.032 44.032 0 0 0 44 44h4.704a79.408 79.408 0 0 1 79.296 79.296v62.4a16 16 0 0 0 16 16z" fill="#3282B8" p-id="9797"></path><path d="M215.232 543.664h114.272a16 16 0 0 0 0-32h-114.272a16 16 0 1 0 0 32zM572.08 123.664a16 16 0 0 0 0 32h81.856a16 16 0 1 0 0-32z" fill="#3282B8" p-id="9798"></path></svg>