<?xml version="1.0" standalone="no"?><!DOCTYPE svg PUBLIC "-//W3C//DTD SVG 1.1//EN" "http://www.w3.org/Graphics/SVG/1.1/DTD/svg11.dtd"><svg t="1733122468176" class="icon" viewBox="0 0 1024 1024" version="1.1" xmlns="http://www.w3.org/2000/svg" p-id="6441" xmlns:xlink="http://www.w3.org/1999/xlink" width="200" height="200"><path d="M243.2 2.133333c-42.666667-8.533333-83.2 23.466667-83.2 66.133334v226.133333h198.4v-149.333333c2.133333-68.266667-46.933333-128-115.2-142.933334z" fill="#F3705A" p-id="6442"></path><path d="M74.666667 588.8c0 185.6 36.266667 345.6 89.6 435.2h194.133333c53.333333-89.6 89.6-251.733333 89.6-435.2H74.666667z" fill="#344A5E" p-id="6443"></path><path d="M106.666667 512h307.2v76.8H106.666667z" fill="#F7B64C" p-id="6444"></path><path d="M132.266667 294.4h256v219.733333h-256z" fill="#FFD15C" p-id="6445"></path><path d="M576 588.8v-234.666667h373.333333v234.666667c0 185.6-36.266667 345.6-89.6 435.2h-194.133333C612.266667 934.4 576 772.266667 576 588.8z" fill="#344A5E" p-id="6446"></path><path d="M576 352h373.333333v57.6H576z" fill="#F7B64C" p-id="6447"></path></svg>