<?xml version="1.0" standalone="no"?><!DOCTYPE svg PUBLIC "-//W3C//DTD SVG 1.1//EN" "http://www.w3.org/Graphics/SVG/1.1/DTD/svg11.dtd"><svg t="1733122829512" class="icon" viewBox="0 0 1024 1024" version="1.1" xmlns="http://www.w3.org/2000/svg" p-id="6540" xmlns:xlink="http://www.w3.org/1999/xlink" width="200" height="200"><path d="M0 512c0-141.376 229.216-256 512-256s512 114.624 512 256-229.216 256-512 256-512-114.624-512-256z m32 0c0 123.712 214.912 224 480 224 265.088 0 480-100.288 480-224s-214.912-224-480-224C246.912 288 32 388.288 32 512z" fill="#71B5F5" p-id="6541"></path><path d="M512 1024C229.216 1024 0 794.784 0 512S229.216 0 512 0s512 229.216 512 512-229.216 512-512 512z m0-32c265.088 0 480-214.912 480-480 0-265.088-214.912-480-480-480C246.912 32 32 246.912 32 512c0 265.088 214.912 480 480 480z" fill="#4B5154" p-id="6542"></path><path d="M512 0c141.376 0 256 229.216 256 512s-114.624 512-256 512-256-229.216-256-512 114.624-512 256-512z m0 32c-123.712 0-224 214.912-224 480 0 265.088 100.288 480 224 480s224-214.912 224-480c0-265.088-100.288-480-224-480z" fill="#4B5154" p-id="6543"></path></svg>