<?xml version="1.0" standalone="no"?><!DOCTYPE svg PUBLIC "-//W3C//DTD SVG 1.1//EN" "http://www.w3.org/Graphics/SVG/1.1/DTD/svg11.dtd"><svg t="1733122812215" class="icon" viewBox="0 0 1024 1024" version="1.1" xmlns="http://www.w3.org/2000/svg" p-id="5436" xmlns:xlink="http://www.w3.org/1999/xlink" width="200" height="200"><path d="M384 0h256a96 96 0 0 1 96 96v224a96 96 0 0 1-96 96h-256a96 96 0 0 1-96-96V96a96 96 0 0 1 96-96z m0 32a64 64 0 0 0-64 64v224a64 64 0 0 0 64 64h256a64 64 0 0 0 64-64V96a64 64 0 0 0-64-64h-256z" fill="#71B5F5" p-id="5437"></path><path d="M800 672a128 128 0 0 1-128 128H352a128 128 0 0 1-128-128v-256a32 32 0 0 0-32-32H64a32 32 0 0 0-32 32v480a32 32 0 0 0 32 32h896a32 32 0 0 0 32-32V416a32 32 0 0 0-32-32h-128a32 32 0 0 0-32 32v256z m-32-84.672V416a64 64 0 0 1 64-64h128a64 64 0 0 1 64 64v480a64 64 0 0 1-64 64H64a64 64 0 0 1-64-64V416a64 64 0 0 1 64-64h128a64 64 0 0 1 64 64v171.328A127.68 127.68 0 0 1 352 544h320a127.68 127.68 0 0 1 96 43.328zM352 576a96 96 0 0 0 0 192h320a96 96 0 0 0 0-192H352z" fill="#4B5154" p-id="5438"></path><path d="M192 931.968h32V1008a16 16 0 1 1-32 0v-76.032zM768 944h32v64a16 16 0 1 1-32 0v-64z" fill="#4B5154" p-id="5439"></path></svg>