<?xml version="1.0" standalone="no"?><!DOCTYPE svg PUBLIC "-//W3C//DTD SVG 1.1//EN" "http://www.w3.org/Graphics/SVG/1.1/DTD/svg11.dtd"><svg t="1733122638663" class="icon" viewBox="0 0 1024 1024" version="1.1" xmlns="http://www.w3.org/2000/svg" p-id="4447" xmlns:xlink="http://www.w3.org/1999/xlink" width="200" height="200"><path d="M1009.019349 736.802561a14.999971 14.999971 0 0 0 14.999971-14.999971v-29.009943c0-29.325943-22.391956-53.183896-49.913903-53.183896h-24.275952v-30.73594c0-21.505958-17.497966-39.001924-39.001924-39.001924h-120.739764c-21.505958 0-39.001924 17.497966-39.001924 39.001924v80.041843c-107.857789-12.581975-242.115527-12.601975-350.155316 0v-80.041843c0-21.505958-17.497966-39.001924-39.001924-39.001924h-9.539981c82.229839-50.073902 174.19166-117.97577 245.893519-184.10564l47.083909 64.727873c12.667975 17.419966 37.125927 21.225959 54.483893 8.599983l97.641809-71.019861v-0.002c17.389966-12.647975 21.247959-37.089928 8.597984-54.483894l-18.079965-24.855951 19.631962-14.277972c22.257957-16.191968 26.331949-48.655905 9.081982-72.371859l-81.419841-111.937781c-17.251966-23.711954-49.389904-29.837942-71.64786-13.647973l-19.633962 14.281972-18.077965-24.853952c-12.647975-17.395966-37.089928-21.249958-54.483893-8.601983L473.818395 148.34171c-17.389966 12.647975-21.247959 37.089928-8.597984 54.483894l47.081908 64.727873c-94.651815 53.285896-203.213603 132.227742-283.169447 205.969598L194.49894 425.913168c-19.503962-26.813948-57.239888-32.773936-84.049836-13.265974l-63.411876 46.12191c-26.827948 19.517962-32.777936 57.221888-13.263974 84.051836l5.627989 7.737985-19.629962 14.277972c-22.701956 16.509968-25.979949 49.139904-9.081982 72.371858l81.419841 111.933782c8.907983 12.249976 21.963957 20.039961 35.88793 22.109957v59.955883c0 29.325943 22.391956 53.185896 49.913903 53.185896h24.275952v30.73394c0 21.505958 17.497966 39.001924 39.001924 39.001923h120.739764c21.505958 0 39.001924-17.497966 39.001924-39.001923v-80.033844c42.629917 4.95999 90.551823 8.077984 139.773727 9.067982a15.003971 15.003971 0 0 0 15.30197-14.695971 14.999971 14.999971 0 0 0-14.697971-15.29797c-49.629903-0.999998-97.843809-4.193992-140.377726-9.279982v-85.777833c106.113793-12.717975 241.839528-12.981975 350.155316 0v85.777833c-42.529917 5.08599-90.745823 8.279984-140.377726 9.279982a15.001971 15.001971 0 0 0 0.296 29.997941c0.102 0 0.206 0 0.307999-0.004 49.223904-0.989998 97.14581-4.107992 139.773727-9.067982v80.033844c0 21.505958 17.497966 39.001924 39.001924 39.001923h120.739764c21.505958 0 39.001924-17.497966 39.001924-39.001923v-30.73394h24.275952c27.521946 0 49.913903-23.859953 49.913903-53.185896v-39.399924c0-8.285984-6.715987-14.999971-14.999971-14.99997s-14.999971 6.713987-14.99997 14.99997v39.399924c0 12.565975-9.117982 23.183955-19.911962 23.183954h-24.275952v-184.779639h24.275952c10.791979 0 19.911961 10.615979 19.911962 23.181955v29.009943a14.997971 14.997971 0 0 0 14.99997 14.997971zM681.301989 120.757764c8.725983-6.343988 22.349956-3.125994 29.737942 7.035986l81.419841 111.937782c7.391986 10.15998 6.261988 24.111953-2.465995 30.45994l-19.631962 14.277972c-12.153976-16.715967-96.337812-132.449741-108.691787-149.433708l19.631961-14.277972z m-191.819625 64.423874c-2.867994-3.945992-1.959996-9.703981 1.983996-12.573975l97.641809-71.021861c3.961992-2.877994 9.711981-1.947996 12.571976 1.985996l153.241701 210.679588 0.01 0.012 26.893947 36.971928c2.869994 3.945992 1.961996 9.703981-1.983996 12.573975l-97.643809 71.021862c-3.963992 2.879994-9.663981 2.011996-12.569976-1.985996L489.482364 185.181638z m40.581921 106.795792l50.457901 69.367864c-78.041848 72.431859-187.509634 152.503702-283.175447 205.957598l-50.449901-69.357865c77.831848-72.241859 187.365634-152.439702 283.167447-205.967597zM127.99707 692.792647v47.615907c-4.461991-1.661997-8.585983-4.737991-11.621977-8.913983l-81.419841-111.935781c-7.729985-10.623979-6.001988-24.299953 2.465995-30.459941l19.629962-14.277972 73.535856 101.099803a56.967889 56.967889 0 0 0-2.589995 16.871967z m74.189855 161.597684H177.910973c-10.791979 0-19.911961-10.615979-19.911962-23.183954v-138.41573c0-5.23999 1.729997-10.897979 5.15599-15.34197 4.079992-5.30199 9.597981-7.839985 14.755972-7.839985h24.273952v184.781639z m0-245.51952v30.73594H177.910973c-1.217998 0-2.423995 0.062-3.621993 0.155999-0.212 0.016-0.423999 0.032-0.635999 0.052-9.287982 0.839998-17.855965 4.397991-25.001951 9.927981l-90.613823-124.573757c-9.783981-13.447974-6.801987-32.353937 6.647987-42.137917l63.411876-46.12191c13.389974-9.745981 32.391937-6.751987 42.137918 6.649987l91.87382 126.307753h-20.921959c-21.501958 0-38.999924 17.497966-38.999924 39.003924z m168.743671 306.255402c0 4.87799-4.121992 8.999982-8.999983 8.999982h-120.739764c-4.87799 0-8.999982-4.121992-8.999982-8.999982V608.872811c0-4.87799 4.121992-8.999982 8.999982-8.999983H361.930613c4.87799 0 8.999982 4.121992 8.999983 8.999983v306.253402z m548.898927 0c0 4.87799-4.121992 8.999982-8.999982 8.999982h-120.739764c-4.87799 0-8.999982-4.121992-8.999983-8.999982V608.872811c0-4.87799 4.121992-8.999982 8.999983-8.999983h120.739764c4.87799 0 8.999982 4.121992 8.999982 8.999983v306.253402z" p-id="4448"></path></svg>