<?xml version="1.0" standalone="no"?><!DOCTYPE svg PUBLIC "-//W3C//DTD SVG 1.1//EN" "http://www.w3.org/Graphics/SVG/1.1/DTD/svg11.dtd"><svg t="1733123027147" class="icon" viewBox="0 0 1156 1024" version="1.1" xmlns="http://www.w3.org/2000/svg" p-id="15335" xmlns:xlink="http://www.w3.org/1999/xlink" width="225.78125" height="200"><path d="M908.8 522.88V518.4c-16-37.76-33.28-75.52-49.28-113.28 0-6.4-7.04-6.4-12.16-4.48l-104.96 32a12.8 12.8 0 0 0-9.6 10.24l-23.04 83.84c-3.2 13.44-7.04 27.52-10.88 41.6l211.84-45.44m-512-433.28s4.48 3.84 5.12 5.76l312.32 274.56a14.72 14.72 0 0 0 12.8 0l71.68-21.76a101.12 101.12 0 0 1 12.16-3.84l-73.6-64-253.44-206.08a21.76 21.76 0 0 0-9.6-4.48c-27.52 5.76-53.76 13.44-82.56 20.48M640 554.24a37.76 37.76 0 0 0 3.2-10.24c10.24-36.48 19.84-74.24 30.72-111.36a16.64 16.64 0 0 0-7.04-21.76L407.68 182.4l-64-58.24a35.2 35.2 0 0 0-3.2 8.32c-12.8 35.2-25.6 69.76-39.04 104.96a13.44 13.44 0 0 0 1.28 18.56L576 498.56l64 55.68M512 13.44c22.4 17.92 246.4 211.2 371.2 320a51.2 51.2 0 0 1 12.16 16c26.24 60.16 53.76 120.96 79.36 182.4a31.36 31.36 0 0 1-23.68 47.36l-110.72 23.68c-46.08 9.6-92.16 18.56-137.6 29.44-12.8 0-24.96 4.48-37.76 8.32a24.96 24.96 0 0 1-24.96-10.24L512 519.04 246.4 284.16a32.64 32.64 0 0 1-10.24-42.24C256 185.6 278.4 128 298.88 71.04a42.24 42.24 0 0 1 32.64-31.36C367.36 31.36 435.84 12.8 471.68 3.84a45.44 45.44 0 0 1 23.68 0A77.44 77.44 0 0 1 512 13.44z m-37.12 936.32l219.52-48c-18.56-53.76-36.48-105.6-55.68-157.44-41.6 13.44-81.92 26.24-122.24 40.32a12.16 12.16 0 0 0-7.68 8.32c-10.88 51.2-22.4 103.04-33.92 156.8m-53.76-17.28c0-12.16 4.48-23.68 7.04-33.92l25.6-119.04A10.88 10.88 0 0 0 448 768c-95.36-96-192-192-288-287.36l-39.04-38.4c-17.92 48-35.2 95.36-51.84 142.72a19.2 19.2 0 0 0 3.2 11.52c14.72 15.36 30.08 29.44 45.44 44.16l242.56 234.24c20.48 17.92 40.32 37.76 64 58.24m-256-529.92l40.32 44.8c47.36 46.72 99.84 96 149.12 145.92s86.4 85.12 128 128a12.16 12.16 0 0 0 13.44 0c46.08-15.36 92.16-31.36 138.88-45.44 25.6-8.32 36.48 0 46.08 24.32l71.68 205.44a32.64 32.64 0 0 1-23.04 48l-245.12 53.76c-16 3.84-31.36 7.68-48 10.24a24.96 24.96 0 0 1-23.04-8.32L262.4 863.36c-64-64-132.48-128-199.04-192l-47.36-45.44a33.28 33.28 0 0 1-8.32-42.24C32 516.48 56.96 448 80.64 384a39.68 39.68 0 0 1 23.68-25.6l102.4-38.4a26.88 26.88 0 0 1 33.92 8.32 32.64 32.64 0 0 1-13.44 51.2c-16 6.4-33.28 11.52-49.28 17.28a24.32 24.32 0 0 0-12.8 0m707.84 461.44l210.56-49.28-67.2-135.04a8.32 8.32 0 0 0-9.6-3.84l-95.36 20.48a13.44 13.44 0 0 0-10.88 12.16c-5.12 29.44-10.88 59.52-16 88.96s-7.04 42.24-10.88 64m156.16-256a28.8 28.8 0 0 1 26.24 19.84l76.8 153.6 17.92 35.84a32.64 32.64 0 0 1-21.12 49.92l-209.92 49.28a817.28 817.28 0 0 1-80 17.92 30.08 30.08 0 0 1-30.08-36.48l35.84-192c0-12.16 4.48-23.68 5.76-35.84a32.64 32.64 0 0 1 25.6-21.76l115.84-25.6a235.52 235.52 0 0 0 35.84-5.76" p-id="15336"></path></svg>