<?xml version="1.0" standalone="no"?><!DOCTYPE svg PUBLIC "-//W3C//DTD SVG 1.1//EN" "http://www.w3.org/Graphics/SVG/1.1/DTD/svg11.dtd"><svg t="1733122854281" class="icon" viewBox="0 0 1024 1024" version="1.1" xmlns="http://www.w3.org/2000/svg" p-id="7578" xmlns:xlink="http://www.w3.org/1999/xlink" width="200" height="200"><path d="M677.082 588.673c43.266-91.454 4.199-200.662-87.252-243.927a183.169 183.169 0 0 0-127.394-10.904l78.119 78.118c32.411 32.412 30.106 87.202-5.016 122.376-35.122 35.17-90.061 37.528-122.375 5.019l-78.221-78.021c-27.001 97.468 30.122 198.373 127.6 225.376a183.133 183.133 0 0 0 127.083-10.88l176.11 174.605c22.023 22.023 59.502 20.467 83.59-3.715 24.081-24.188 25.787-61.564 3.712-83.489L677.082 588.673z m128.746 245.202c-17.046 0-30.86-13.819-30.86-30.861 0-17.043 13.814-30.854 30.86-30.854 17.038 0 30.853 13.811 30.853 30.854 0.028 17.012-13.736 30.83-30.754 30.861h-0.099z m89.258-404.857h-59.457a56.508 56.508 0 0 1-23.632-8.429l-0.803-0.701c-25.14-16.794-31.902-50.789-15.108-75.924a53.61 53.61 0 0 1 2.668-3.651l9.225-9.132 20.675-20.469 12.545-12.544c17.894-23.46 17.562-56.081-0.802-79.173l-36.275-36.477c-23.018-18.39-55.577-18.826-79.074-1.055l-12.545 12.545-29.5 29.401a55.708 55.708 0 0 1-56.349 7.325 56.709 56.709 0 0 1-16.857-11.639 54.166 54.166 0 0 1-15.451-32.464v-60.008C590.38 97.514 567.266 74.75 538.1 71.23h-51.327c-29.321 3.236-52.694 25.972-56.747 55.191v59.407a33.724 33.724 0 0 1-0.704 4.413c0.014 0.167 0.014 0.334 0 0.502-0.299 1.557-0.802 3.163-1.152 4.617a0.373 0.373 0 0 0 0 0.3 35.6 35.6 0 0 1-1.759 4.517c-0.702 1.455-1.252 2.96-2.059 4.413a54.139 54.139 0 0 1-13.243 16.46 54.804 54.804 0 0 1-35.572 13.145 54.093 54.093 0 0 1-33.92-11.941l-9.227-9.132-20.477-20.671-12.442-12.543c-23.456-17.872-56.035-17.582-79.174 0.701l-36.926 36.628c-18.397 23.028-18.917 55.574-1.256 79.175l12.642 12.643 29.402 29.403c0.601 0.802 1.054 1.554 1.556 2.156a13.408 13.408 0 0 1 1.454 2.058c0.505 0.801 0.905 1.555 1.354 2.358l1.157 1.856c0.601 1.005 0.9 2.059 1.354 3.063l0.802 1.554c0.501 1.055 0.802 2.159 1.256 3.163 0.103 0.503 0.273 0.993 0.498 1.455a51.03 51.03 0 0 1 1.256 4.616c0.38 1.652 0.647 3.329 0.801 5.018a54.543 54.543 0 0 1-15.652 45.758 54.255 54.255 0 0 1-32.365 15.653h-59.9c-29.103 3.944-51.889 27-55.495 56.143v51.331c3.284 29.294 25.999 52.648 55.191 56.746h59.457c1.685 0.163 3.366 0.433 5.02 0.803 0.404 0.141 0.823 0.243 1.253 0.299 1.251 0.299 2.357 0.604 3.511 1.004 23.044 7.036 38.761 28.332 38.685 52.429a54.813 54.813 0 0 1-11.842 33.922l-9.231 9.132-20.472 20.467-12.642 12.547c-17.896 23.46-17.566 56.08 0.8 79.173l36.176 36.477c23.03 18.423 55.614 18.894 79.174 1.153l12.644-12.546 29.604-29.401 0.802-0.399a53.804 53.804 0 0 1 3.413-2.457 9.413 9.413 0 0 1 1.654-1.054c0.9-0.403 1.758-1.055 2.658-1.557l3.062-1.355a5.429 5.429 0 0 0 1.457-0.803l4.417-1.558c1.452-0.298 2.958-0.8 4.41-1.05h0.305c1.39-0.299 2.796-0.5 4.211-0.602a1.7 1.7 0 0 1 0.703 0c1.355 0 2.657 0 4.013-0.403a54.897 54.897 0 0 1 41.749 16.056 54.112 54.112 0 0 1 15.752 32.216v59.903c3.894 29.165 27.031 51.995 56.244 55.494h51.23c29.307-3.293 52.682-25.991 56.844-55.19v-59.509a56.005 56.005 0 0 1 11.187-27.443c0.471-0.66 0.994-1.279 1.561-1.856 0.599-0.604 1.051-1.257 1.654-1.959a53.705 53.705 0 0 1 11.288-9.229c1.153-0.606 2.156-1.259 3.311-1.756 0.329-0.21 0.687-0.376 1.056-0.506l0.904-0.498c1.004-0.504 2.058-0.804 3.062-1.155l-49.125-48.718a245.344 245.344 0 0 1-67.131 9.334c-132.729-0.459-239.96-108.425-239.507-241.159 0.455-132.731 108.428-239.96 241.159-239.504 132.73 0.455 239.964 108.427 239.506 241.156a240.178 240.178 0 0 1-9.207 65.049l49.022 48.523a55.195 55.195 0 0 1 10.989-15.76 52.634 52.634 0 0 1 18.114-11.635 48.58 48.58 0 0 1 14.199-3.914h59.901c29.351-3.795 52.365-27.059 55.847-56.448v-51.328c-3.165-29.359-25.939-52.771-55.191-56.753z" fill="#939393" p-id="7579"></path></svg>