<?xml version="1.0" standalone="no"?><!DOCTYPE svg PUBLIC "-//W3C//DTD SVG 1.1//EN" "http://www.w3.org/Graphics/SVG/1.1/DTD/svg11.dtd"><svg t="1733123104185" class="icon" viewBox="0 0 1024 1024" version="1.1" xmlns="http://www.w3.org/2000/svg" p-id="18555" xmlns:xlink="http://www.w3.org/1999/xlink" width="200" height="200"><path d="M662.5 697.6c-41.1-9.5-85.6-14.6-132.2-14.6l-12 0.1-77.9-292c8.8-8.4 18.9-14.2 30.2-17.2 15.5-4.2 31.4-2.9 47.6 3.9 12.4 5.2 26.7 1.4 34.8-9.4l4.1-5.1c9.2-10.9 21.5-18.7 35.2-22.5 15.5-4.2 31.4-2.9 47.6 3.9 12.4 5.2 26.7 1.3 34.8-9.4l4.1-5.1c9.2-10.9 21.5-18.7 35.2-22.5 9-2.5 18.3-3.3 27.6-2.3l2.1 0.1c8-0.3 15.1-7.3 8.3-16.7-90.3-125.7-230-202-393.2-165.8 0.1-3-0.2-6.1-1-9-4.2-15.6-20.3-24.9-35.9-20.7-3.4 0.9-6.6 2.4-9.5 4.5-13.2 9.4-16.2 27.7-6.8 40.9-146.9 54.6-225 184.6-241.9 331.6-1.7 14.8 8.9 19.8 18.8 13.1l5.2-3.2c5.6-3.1 11.5-5.5 17.6-7.2 15.5-4.2 31.4-2.9 47.6 3.9 12.4 5.2 26.7 1.3 34.8-9.4l4.1-5.1c9.2-10.9 21.5-18.7 35.2-22.5 15.5-4.2 31.4-2.9 47.6 3.9 12.4 5.2 26.7 1.3 34.8-9.4l4.1-5.1c9.2-10.9 21.5-18.7 35.2-22.5 11.4-3.1 23.5-3.2 35-0.3L458.5 687c-176.9 20.5-312.1 116.4-312.1 245.2h762.7l-0.1-6.9C905.6 832 832.8 756.7 724.6 716c-7-2.2-19.3-6.2-31.2-10.2-18-5.8-30.9-8.2-30.9-8.2zM398.7 349.8l-8.7-1.9c-18.8-3.5-38-2.7-56.4 2.3l-7.4 2.2c-17 5.7-32.5 15-45.7 27.1l-3.5 3.3-8.7-1.9c-18.8-3.5-38-2.7-56.4 2.3l-7.4 2.2c-11.3 3.8-27.7 13.9-49.1 30.4l-7.9-1.7-7.2-1.2-6-0.6 3.2-11.1c32.8-108.9 107.9-187 218.1-216.9 112.1-30.4 217.2 0.9 299.8 81.5l3.9 3.9-1.6 1.2c-4.1 2.9-8.1 6.2-11.9 9.7l-3.5 3.3-8.7-1.9c-18.8-3.5-38-2.7-56.4 2.3l-7.4 2.2c-17 5.7-32.5 14.9-45.7 27l-3.4 3.3-8.7-1.9c-18.7-3.5-38-2.7-56.4 2.3l-7 2.1c-18.4 6.1-35.1 16.4-49 29.9l-0.9 0.6z m436.9 523.9H220.5l2.1-3.8c42.7-73.7 159.8-128.2 307.6-128.2l9.9 0.1c144.8 2.4 256.6 57.4 295.5 131.9z" fill="#3A3A3A" p-id="18556"></path><path d="M757.8 607.8c5.6-0.1 11.2 0.8 16.5 2.7 8.7 3.2 16.2 8.8 21.7 16.3 7 9.3 18.8 13.6 30.2 10.9l4.7-0.9c17-2.6 34.1 4.5 44.2 18.5l2.5 2.9c7.2 7.3 17.7 10.3 27.7 8l4.7-0.9c7.6-1.1 15.3-0.4 22.6 2.2 5.8 2.1 11.2 5.2 15.9 9.3 4.5 3.9 12.1 3.2 12-5.1-1.2-99-44.7-190.6-139.2-235.5 0.7-1.3 1.4-2.7 1.9-4.2 5.5-15.2-2.4-32.1-17.6-37.5-15.2-5.5-32.1 2.4-37.5 17.6l-1 3.3-0.3 1.8c-98.1-22.6-187.6 18.4-251.4 90.4-6.6 7.5-2.7 14.2 5.3 14.3l4.1 0.2c2.8 0.3 5.5 0.8 8.2 1.5l4.1 1.3c8.7 3.2 16.3 8.8 21.7 16.3 7 9.3 18.8 13.6 30.2 10.9l4.7-0.9c17-2.6 34.1 4.5 44.2 18.5l2.5 2.9c7.2 7.3 17.7 10.3 27.6 8l4.7-0.9c10.6-1.6 21.5 0.6 30.7 6.1l-40.9 111.7s12.9 2.4 30.9 8.4c11.9 4 24.2 7.9 31.2 10.2l-5.7-2.1 38.9-106.2z m-49.7-83.3c-9.4-2.7-19.2-4-29-3.9l-6.6 0.2-1.7-1.6C660.7 510 649 503 636 498.3l-7-2.3-6.7-1.7 5.1-2.8c46.4-24.6 97.9-28.9 150-10.2 52.5 18.9 89.2 55.5 108.6 104.5l1.6 4.3-1.6-0.9c-4-2.1-8.2-3.9-12.6-5.5l-7-2.3c-9.4-2.7-19.2-4-29-3.9l-6.6 0.3-1.7-1.6c-10.1-9.2-21.8-16.3-34.8-20.9l-7-2.3c-9.4-2.7-19.2-4-29-3.9l-6.6 0.2-1.7-1.6c-10.1-9.2-21.8-16.3-34.8-20.9l-7.1-2.3z" fill="#0798E8" p-id="18557"></path></svg>