<?xml version="1.0" standalone="no"?><!DOCTYPE svg PUBLIC "-//W3C//DTD SVG 1.1//EN" "http://www.w3.org/Graphics/SVG/1.1/DTD/svg11.dtd"><svg t="1733122666423" class="icon" viewBox="0 0 1024 1024" version="1.1" xmlns="http://www.w3.org/2000/svg" p-id="5521" xmlns:xlink="http://www.w3.org/1999/xlink" width="200" height="200"><path d="M512 512m-512 0a512 512 0 1 0 1024 0 512 512 0 1 0-1024 0Z" fill="#F9F2FD" p-id="5522"></path><path d="M542.60093 527.59814H785.860465v-19.289303c0-68.584186-55.724651-124.308837-124.308837-124.308837-65.905116 0-120.022326 51.43814-124.308837 116.271628a24.802233 24.802233 0 0 0-9.644651-6.965581V250.046512h-19.289303c-68.584186 0-124.308837 55.724651-124.308837 124.308837 0 65.905116 51.43814 120.022326 116.271628 124.308837-3.214884 2.67907-5.35814 5.893953-6.965581 9.644651H250.046512v19.289303c0 68.584186 55.724651 124.308837 124.308837 124.308837 65.905116 0 120.022326-51.43814 124.308837-116.271628 2.67907 3.214884 5.893953 5.35814 9.644651 6.965581V785.860465h19.289303c68.584186 0 124.308837-55.724651 124.308837-124.308837 0-65.905116-51.43814-120.022326-116.271628-124.308837 3.214884-2.67907 5.35814-5.893953 6.965581-9.644651z" fill="#B553E1" p-id="5523"></path></svg>