<?xml version="1.0" standalone="no"?><!DOCTYPE svg PUBLIC "-//W3C//DTD SVG 1.1//EN" "http://www.w3.org/Graphics/SVG/1.1/DTD/svg11.dtd"><svg t="1733123000015" class="icon" viewBox="0 0 1024 1024" version="1.1" xmlns="http://www.w3.org/2000/svg" p-id="14146" xmlns:xlink="http://www.w3.org/1999/xlink" width="200" height="200"><path d="M956.9 656.3V516.2c-0.3-32.6-12-64.3-32.9-89.3l-0.3-0.4c-15.6-16.8-33.9-30.5-54.4-40.7L821.5 254c-15.6-50.2-58.6-108.8-128.5-108.8H330.4c-70.2 0-113.1 58.6-128.5 108.8l-47.8 131.8c-20.5 10.2-38.8 23.8-54.4 40.7l-0.3 0.4c-21 25.1-32.6 56.9-32.9 89.6v140c-1.8 17.8 7.5 34.7 22.9 42.8v81.1c-0.1 21.1 8.1 41 23 56s34.8 23.3 55.9 23.4h48.4c21.1-0.1 41-8.4 55.9-23.4s23.1-34.9 23-56v-28.8c35.1 2.8 149.1 11.7 215.5 11.7s180.4-8.8 215.5-11.7v28.8c-0.3 21.1 7.6 41.1 22.3 56.2 14.7 15.2 34.5 23.7 55.6 24H854.7c43.4 0 78.9-35.2 79.1-78.7V699.2c15.7-8 25-25 23.1-42.9z m-56.1-140.5c-0.2 15.5-0.2 107.1-0.2 132.9-28.8 10.4-160.5 52.7-389.2 52.7-135.2 0-235.3-14.9-295.5-27.5-49.5-10.3-80.9-20.7-93.2-25.2V515.9c0-10.4 6.6-29.2 19.1-45.3 10.1-12.9 27.2-28.3 51.5-28.3h637c19.9 0 35 10.9 44 20.1 18.2 18.3 26.5 42.7 26.5 53.4zM328.9 206.4h365.5c18.5 0 35 7.3 49.1 21.7 11.4 11.6 20.4 27.4 24.9 43.3l0.1 0.4 40.7 109.7H211.9l41.8-108.8 0.2-0.7c7.4-24.3 31.3-65.6 75-65.6z m-89.5 579.2c0.1 9.6-7.7 17.7-17.3 17.9h-58.3-0.1c-4.6 0-8.9-1.8-12.2-5-3.3-3.3-5.2-7.6-5.2-12.2v-67.7c23.3 5.8 71.7 17.2 93.2 22.3l-0.1 44.7z m638.2 0.3c0.1 4.6-1.7 9-4.9 12.4s-7.6 5.2-12.2 5.3h-58.8c-4.8 0-9.2-1.9-12.5-5.3-3.3-3.4-5.2-7.9-5.1-12.7V741c21.4-5.1 69.9-16.5 93.2-22.3l0.3 67.2z" fill="#3A3A3A" p-id="14147"></path><path d="M182.8 563.1c0 28.7 23.3 52 52 52s52-23.3 52-52-23.3-52.1-52-52.1-52 23.3-52 52.1c0-0.1 0-0.1 0 0zM736.5 563.1c0 28.7 23.3 52 52 52s52-23.3 52-52-23.3-52-52-52-52 23.2-52 52z" fill="#0798E8" p-id="14148"></path></svg>