<?xml version="1.0" standalone="no"?><!DOCTYPE svg PUBLIC "-//W3C//DTD SVG 1.1//EN" "http://www.w3.org/Graphics/SVG/1.1/DTD/svg11.dtd"><svg t="1733127753837" class="icon" viewBox="0 0 1024 1024" version="1.1" xmlns="http://www.w3.org/2000/svg" p-id="19698" xmlns:xlink="http://www.w3.org/1999/xlink" width="200" height="200"><path d="M475.191475 796.117302v-15.231078a112.475651 112.475651 0 0 1 0-14.059456H232.080042a58.581068 58.581068 0 0 1-43.935801-18.160131 61.510122 61.510122 0 0 1-18.160131-45.693234 63.853364 63.853364 0 0 1 18.160131-45.693233 58.581068 58.581068 0 0 1 43.935801-18.745942h287.633045a280.603316 280.603316 0 0 1 99.587815-96.072951 267.129671 267.129671 0 0 1 135.908078-35.734452h34.562831V255.414043h-144.109428a86.11417 86.11417 0 0 1-47.450665-12.887835 107.789165 107.789165 0 0 1-32.219588-31.633777 138.251321 138.251321 0 0 1-18.160131-41.592558 168.127666 168.127666 0 0 1-5.858107-42.178369V0.000586H83.284129a36.320262 36.320262 0 0 0-25.77567 11.130403 39.249316 39.249316 0 0 0-11.130403 26.947291v883.402508a39.249316 39.249316 0 0 0 11.130403 27.533102 36.320262 36.320262 0 0 0 26.361481 11.130402h441.115443a280.603316 280.603316 0 0 1-36.320263-76.155388 287.633045 287.633045 0 0 1-12.887834-87.285792z m-287.047234-394.250589a58.581068 58.581068 0 0 1 43.935801-18.160131H602.898203a58.581068 58.581068 0 0 1 43.935801 18.160131 61.510122 61.510122 0 0 1 18.160132 45.107423 63.853364 63.853364 0 0 1-18.160132 45.693233 58.581068 58.581068 0 0 1-43.935801 18.745942H232.080042a58.581068 58.581068 0 0 1-43.935801-18.745942 63.853364 63.853364 0 0 1-18.160131-45.693233 58.581068 58.581068 0 0 1 18.160131-45.107423z m771.512667 308.722229a234.324273 234.324273 0 0 0-46.864854-71.468903 224.365491 224.365491 0 0 0-69.125661-48.622286 203.276306 203.276306 0 0 0-84.942548-18.160132 200.347253 200.347253 0 0 0-84.356739 18.160132 224.365491 224.365491 0 0 0-69.12566 48.622286 234.324273 234.324273 0 0 0-46.864854 71.468903 220.264816 220.264816 0 0 0-16.98851 87.285792 223.19387 223.19387 0 0 0 16.98851 87.871602 230.223598 230.223598 0 0 0 46.864854 71.468903 222.022248 222.022248 0 0 0 69.12566 48.622287 200.347253 200.347253 0 0 0 84.356739 18.160131 203.276306 203.276306 0 0 0 84.942548-18.160131 222.022248 222.022248 0 0 0 69.125661-48.622287 229.051976 229.051976 0 0 0 46.864854-71.468903 230.223598 230.223598 0 0 0 0-175.743204z m-164.02699 70.297282V937.297676a33.97702 33.97702 0 0 1-33.97702 33.977019 33.97702 33.97702 0 0 1-33.97702-33.977019v-156.411452H621.644145l140.594564-136.493889 140.594563 138.837132z m-117.162137-590.497167h111.88984V38.07828a39.249316 39.249316 0 0 0-11.130403-26.947291 36.320262 36.320262 0 0 0-26.36148-11.130403H604.069825v113.647272a77.32701 77.32701 0 0 0 21.674995 53.894583 73.226335 73.226335 0 0 0 52.722961 22.260806z m0 0" fill="#2c2c2c" p-id="19699"></path></svg>