<?xml version="1.0" standalone="no"?><!DOCTYPE svg PUBLIC "-//W3C//DTD SVG 1.1//EN" "http://www.w3.org/Graphics/SVG/1.1/DTD/svg11.dtd"><svg t="1733127608310" class="icon" viewBox="0 0 1024 1024" version="1.1" xmlns="http://www.w3.org/2000/svg" p-id="14802" xmlns:xlink="http://www.w3.org/1999/xlink" width="200" height="200"><path d="M676.312615 778.161231a195.977846 195.977846 0 0 0 32.649847-108.642462c0-108.740923-88.182154-196.903385-196.923077-196.903384-108.760615 0-196.923077 88.162462-196.923077 196.923077 0 108.740923 88.162462 196.903385 196.923077 196.903384 40.113231 0 77.430154-12.012308 108.563692-32.610461l56.713846 56.733538 55.709539-55.689846-56.713847-56.713846zM157.577846 0.039385h708.844308v1023.92123H157.577846V0.039385z m354.461539 787.63323A118.153846 118.153846 0 1 1 512 551.384615a118.153846 118.153846 0 0 1 0 236.307693z m-196.923077-630.094769v78.769231h393.846154v-78.769231h-393.846154z m0 157.538462v78.76923h393.846154v-78.76923h-393.846154z m157.538461 295.34523v118.153847h78.769231v-118.153847h-78.769231z" fill="#333333" p-id="14803"></path></svg>