<?xml version="1.0" standalone="no"?><!DOCTYPE svg PUBLIC "-//W3C//DTD SVG 1.1//EN" "http://www.w3.org/Graphics/SVG/1.1/DTD/svg11.dtd"><svg t="1733123176019" class="icon" viewBox="0 0 1024 1024" version="1.1" xmlns="http://www.w3.org/2000/svg" p-id="21988" xmlns:xlink="http://www.w3.org/1999/xlink" width="200" height="200"><path d="M480 608m-240 0a240 240 0 1 0 480 0 240 240 0 1 0-480 0Z" fill="#54FEBD" p-id="21989"></path><path d="M880 912H144c-44.112 0-80-35.888-80-80V320c0-44.112 35.888-80 80-80h208a16 16 0 0 1 0 32H144c-26.464 0-48 21.536-48 48v512c0 26.464 21.536 48 48 48h736c26.464 0 48-21.536 48-48V320c0-26.464-21.536-48-48-48H672a16 16 0 0 1 0-32h208c44.112 0 80 35.888 80 80v512c0 44.112-35.888 80-80 80z" fill="#1D1B4C" p-id="21990"></path><path d="M80 496a16 16 0 0 1-3.888-0.48l-64-16A16 16 0 0 1 0 464v-96a16 16 0 0 1 12.112-15.52l64-16A16 16 0 0 1 96 352v128a16 16 0 0 1-16 16z m-48-44.48l32 8v-87.04l-32 8v71.04zM944 496a15.984 15.984 0 0 1-16-16v-128a16 16 0 0 1 19.888-15.52l64 16A16 16 0 0 1 1024 368v96a16 16 0 0 1-12.112 15.52l-64 16A16 16 0 0 1 944 496z m16-123.52v87.04l32-8v-71.04l-32-8zM671.984 272a16 16 0 0 1-15.52-12.112L627.52 144H396.496l-28.96 115.888a16 16 0 0 1-31.04-7.76l31.984-128A16 16 0 0 1 384 112h256a16 16 0 0 1 15.52 12.112l32 128A16 16 0 0 1 672 272zM288 272h-128a16 16 0 0 1-16-16v-48c0-17.648 14.352-32 32-32h96c17.648 0 32 14.352 32 32v48a16 16 0 0 1-16 16z m-112-32h96v-32h-96v32z" fill="#1D1B4C" p-id="21991"></path><path d="M592 208H432a16 16 0 0 1 0-32h160a16 16 0 0 1 0 32zM592 272H432a16 16 0 0 1 0-32h160a16 16 0 0 1 0 32zM512 832c-141.152 0-256-114.848-256-256s114.848-256 256-256 256 114.848 256 256-114.848 256-256 256z m0-480c-123.52 0-224 100.48-224 224s100.48 224 224 224 224-100.48 224-224-100.48-224-224-224z" fill="#1D1B4C" p-id="21992"></path><path d="M512 736c-88.224 0-160-71.776-160-160s71.776-160 160-160 160 71.776 160 160-71.776 160-160 160z m0-288c-70.576 0-128 57.424-128 128s57.424 128 128 128 128-57.424 128-128-57.424-128-128-128z" fill="#1D1B4C" p-id="21993"></path><path d="M487.008 516a16.016 16.016 0 0 1-5.008-31.2c3.472-1.136 7.04-2.096 10.656-2.848a16 16 0 0 1 6.48 31.344 63.84 63.84 0 0 0-7.136 1.92c-1.664 0.528-3.344 0.8-5.008 0.8zM432 592a16 16 0 0 1-16-16c0-6.48 0.656-12.96 1.952-19.312a96.544 96.544 0 0 1 14.464-34.336 16 16 0 0 1 26.512 17.92A64.08 64.08 0 0 0 448 576a16 16 0 0 1-15.984 15.984zM944 752H690.72a16 16 0 0 1 0-32H944a16 16 0 0 1 0 32zM333.28 752H80a16 16 0 0 1 0-32h253.28a16 16 0 0 1 0 32zM944 432H690.72a16 16 0 0 1 0-32H944a16 16 0 0 1 0 32zM333.28 432H80a16 16 0 0 1 0-32h253.28a16 16 0 0 1 0 32zM144 528c-4.16 0-8.32-1.76-11.36-4.64-2.88-3.04-4.64-7.04-4.64-11.36 0-4.16 1.76-8.32 4.64-11.36 6.08-5.92 16.8-5.92 22.72 0 2.88 3.04 4.64 7.2 4.64 11.36 0 4.32-1.76 8.32-4.64 11.36-3.04 2.88-7.04 4.64-11.36 4.64zM144 592c-4.16 0-8.32-1.76-11.36-4.64-2.88-3.04-4.64-7.2-4.64-11.36 0-4.32 1.76-8.32 4.64-11.36 5.92-5.92 16.64-5.92 22.72 0 2.88 3.04 4.64 7.04 4.64 11.36 0 4.16-1.76 8.32-4.64 11.36-3.04 2.88-7.2 4.64-11.36 4.64zM144 656c-4.16 0-8.32-1.76-11.36-4.64-2.88-3.04-4.64-7.2-4.64-11.36 0-4.16 1.76-8.32 4.64-11.36 5.92-5.92 16.8-5.92 22.72 0 2.88 3.04 4.64 7.2 4.64 11.36 0 4.16-1.76 8.32-4.64 11.36-3.04 2.88-7.2 4.64-11.36 4.64zM880 528c-4.32 0-8.32-1.76-11.36-4.64-2.88-3.04-4.64-7.2-4.64-11.36 0-4.16 1.76-8.32 4.64-11.36 5.92-5.92 16.8-5.92 22.72 0 2.88 3.04 4.64 7.2 4.64 11.36 0 4.16-1.76 8.32-4.64 11.36-3.04 2.88-7.04 4.64-11.36 4.64zM880 592c-4.16 0-8.32-1.76-11.36-4.64-2.88-3.04-4.64-7.2-4.64-11.36 0-4.16 1.76-8.32 4.64-11.36 5.92-5.92 16.64-5.92 22.72 0 2.88 3.04 4.64 7.2 4.64 11.36 0 4.16-1.76 8.32-4.64 11.36-3.04 2.88-7.2 4.64-11.36 4.64zM880 656c-4.16 0-8.32-1.76-11.36-4.64-2.88-3.04-4.64-7.2-4.64-11.36 0-4.16 1.76-8.32 4.64-11.36 5.92-5.92 16.8-5.92 22.72 0 2.88 3.04 4.64 7.2 4.64 11.36 0 4.16-1.76 8.32-4.64 11.36-3.04 2.88-7.2 4.64-11.36 4.64z" fill="#1D1B4C" p-id="21994"></path></svg>