<?xml version="1.0" standalone="no"?><!DOCTYPE svg PUBLIC "-//W3C//DTD SVG 1.1//EN" "http://www.w3.org/Graphics/SVG/1.1/DTD/svg11.dtd"><svg t="1733122782180" class="icon" viewBox="0 0 1024 1024" version="1.1" xmlns="http://www.w3.org/2000/svg" p-id="4367" xmlns:xlink="http://www.w3.org/1999/xlink" width="200" height="200"><path d="M287.99595 928.00135v31.99955h447.9937v-63.9991h63.9991a191.9973 191.9973 0 0 0 191.9973-191.9973v-159.99775a31.99955 31.99955 0 0 0-31.99955-31.99955H63.9991a31.99955 31.99955 0 0 0-31.99955 31.99955v159.99775a191.9973 191.9973 0 0 0 191.9973 191.9973h63.9991v31.99955z m-31.99955 0H223.99685a223.99685 223.99685 0 0 1-223.99685-223.99685v-159.99775a63.9991 63.9991 0 0 1 63.9991-63.9991h895.9874a63.9991 63.9991 0 0 1 63.9991 63.9991v159.99775a223.99685 223.99685 0 0 1-223.99685 223.99685h-31.99955v63.9991a31.99955 31.99955 0 0 1-31.99955 31.99955H287.99595a31.99955 31.99955 0 0 1-31.99955-31.99955v-63.9991z m31.99955 31.99955v15.999775a15.999775 15.999775 0 0 0 15.999775 15.999775h415.99415a15.999775 15.999775 0 0 0 15.999775-15.999775V960.0009H287.99595z" fill="#4B5154" p-id="4368"></path><path d="M95.99865 608.00585m15.999775 0l799.98875 0q15.999775 0 15.999775 15.999775l0 0q0 15.999775-15.999775 15.999775l-799.98875 0q-15.999775 0-15.999775-15.999775l0 0q0-15.999775 15.999775-15.999775Z" fill="#71B5F5" p-id="4369"></path><path d="M223.99685 128.0126v31.99955H79.998875a15.999775 15.999775 0 0 1 0-31.99955H223.99685z m415.99415 0h303.995725a15.999775 15.999775 0 1 1 0 31.99955H639.991V128.0126zM223.99685 256.0108v31.99955H79.998875a15.999775 15.999775 0 0 1 0-31.99955H223.99685z m415.99415 0h303.995725a15.999775 15.999775 0 1 1 0 31.99955H639.991V256.0108z" fill="#4B5154" p-id="4370"></path><path d="M287.99595 160.01215l0.319996 144.221972c-0.255996 88.89475-47.583331 136.894075-142.014003 144.029974a15.999775 15.999775 0 1 1-0.73599-31.743553c73.854961-3.807946 110.750443-41.24742 110.750443-112.318421V288.01035H255.9964V144.236372C256.252396 55.341622 303.61173 7.310297 398.010403 0.174398a15.999775 15.999775 0 1 1 0.73599 31.743553C324.923431 35.789897 287.99595 73.22937 287.99595 144.268371V160.01215zM447.9937 160.01215l0.319996 144.221972c-0.255996 88.89475-47.583331 136.894075-142.014003 144.029974a15.999775 15.999775 0 1 1-0.73599-31.743553c73.854961-3.807946 110.750443-41.24742 110.750443-112.318421V288.01035H415.99415V144.236372c0.255996-88.89475 47.61533-136.926074 142.014003-144.061974a15.999775 15.999775 0 1 1 0.73599 31.743553C484.921181 35.789897 447.9937 73.22937 447.9937 144.268371V160.01215zM607.99145 160.01215l0.319996 144.221972c-0.255996 88.89475-47.583331 136.894075-142.014003 144.029974a15.999775 15.999775 0 1 1-0.73599-31.743553c73.854961-3.807946 110.750443-41.24742 110.750443-112.318421V288.01035H575.9919V144.236372c0.255996-88.89475 47.61533-136.926074 142.014003-144.061974a15.999775 15.999775 0 1 1 0.73599 31.743553C644.918931 35.789897 607.99145 73.22937 607.99145 144.268371V160.01215z" fill="#4B5154" p-id="4371"></path></svg>