<?xml version="1.0" standalone="no"?><!DOCTYPE svg PUBLIC "-//W3C//DTD SVG 1.1//EN" "http://www.w3.org/Graphics/SVG/1.1/DTD/svg11.dtd"><svg t="1733127683936" class="icon" viewBox="0 0 1025 1024" version="1.1" xmlns="http://www.w3.org/2000/svg" p-id="17554" xmlns:xlink="http://www.w3.org/1999/xlink" width="200.1953125" height="200"><path d="M820.400128 924.63104c-19.668992 6.649856-40.726528 10.28096-62.640128 10.28096-87.801856 0-162.08896-57.856-186.820608-137.5232L122.88 797.3888l0-49.152 439.506944 0c-0.131072-2.953216-0.210944-5.922816-0.210944-8.9088 0-43.696128 14.333952-84.03968 38.547456-116.600832L122.88 622.727168l0-49.152 531.032064 0C684.009472 554.682368 719.603712 543.744 757.76 543.744c37.545984 0 72.613888 10.58816 102.4 28.928L860.16 149.706752l-0.047104 0 0-13.119488L860.16 136.587264 860.16 81.92c0-45.242368-30.81216-81.92-68.816896-81.92L68.8128 0C30.808064 0 0 36.677632 0 81.92l0 860.16c0 45.246464 30.808064 81.92 68.8128 81.92l722.532352 0c32.147456 0 59.14624-26.24512 66.701312-61.722624L820.400128 924.63104zM122.88 224.256l614.4 0 0 49.152L122.88 273.408 122.88 224.256zM122.88 398.915584l614.4 0 0 49.152L122.88 448.067584 122.88 398.915584z" p-id="17555"></path><path d="M1014.99904 971.558912l-136.15104-136.155136c21.147648-26.3168 33.83296-59.727872 33.83296-96.120832 0-84.832256-68.767744-153.6-153.6-153.6s-153.6 68.767744-153.6 153.6 68.767744 153.6 153.6 153.6c26.140672 0 50.743296-6.547456 72.292352-18.067456l140.183552 140.187648c11.997184 11.995136 31.444992 11.995136 43.446272 0S1026.998272 983.556096 1014.99904 971.558912zM759.078912 841.682944c-56.55552 0-102.4-45.848576-102.4-102.4 0-56.55552 45.84448-102.4 102.4-102.4s102.4 45.84448 102.4 102.4C861.478912 795.836416 815.634432 841.682944 759.078912 841.682944z" p-id="17556"></path></svg>