<?xml version="1.0" standalone="no"?><!DOCTYPE svg PUBLIC "-//W3C//DTD SVG 1.1//EN" "http://www.w3.org/Graphics/SVG/1.1/DTD/svg11.dtd"><svg t="1733126604539" class="icon" viewBox="0 0 1024 1024" version="1.1" xmlns="http://www.w3.org/2000/svg" p-id="9755" xmlns:xlink="http://www.w3.org/1999/xlink" width="200" height="200"><path d="M256 85.312c-46.912 0-85.312 38.4-85.312 85.376v682.624c0 46.976 38.4 85.376 85.312 85.376h256v-213.376a128 128 0 0 1 128-128h213.312V359.04a42.56 42.56 0 0 0-12.48-30.144l-231.04-231.04a42.624 42.624 0 0 0-30.08-12.48H256z m298.688 64L789.312 384H554.688V149.312zM640 682.688a42.368 42.368 0 0 0-38.272 24.384l179.84 112.768c17.792 11.136 40.384 11.2 58.24 0.064l180.224-112.128a42.56 42.56 0 0 0-38.72-25.088H640z m-42.688 117.632v180.992c0 23.552 19.136 42.688 42.688 42.688h341.312a42.688 42.688 0 0 0 42.688-42.688V801.28l-184.256 114.624a54.912 54.912 0 0 1-58.176-0.064l-184.256-115.52z" fill="#2C2A2A" p-id="9756"></path></svg>