<?xml version="1.0" standalone="no"?><!DOCTYPE svg PUBLIC "-//W3C//DTD SVG 1.1//EN" "http://www.w3.org/Graphics/SVG/1.1/DTD/svg11.dtd"><svg t="1733123080264" class="icon" viewBox="0 0 1447 1024" version="1.1" xmlns="http://www.w3.org/2000/svg" p-id="17362" xmlns:xlink="http://www.w3.org/1999/xlink" width="282.6171875" height="200"><path d="M891.615519 851.602877H701.331719a50.144312 50.144312 0 0 0-21.74672 7.248907l2.71834-723.984553c0-22.652833 31.713967-77.925747 90.611334-77.925746l468.460593-2.71834v428.500995c0 49.709377 78.505659 49.709377 78.505659 0V44.926422C1319.301012 19.790838 1310.239879-0.143655 1280.628095 0.001323H739.642191C694.082813-0.143655 682.883252 11.599574 659.650506 37.913105c-12.685587-16.31004-16.31004-34.432307-72.489067-36.244534L35.157197 0.001323C16.31004-0.143655 1.812227 14.354158 1.812227 36.100878l-1.812227 831.812039c0.706768 35.048464 12.685587 57.846275 45.305667 57.991254h500.772594c23.939514-0.598035 41.083178 5.43668 51.956538 16.31004l19.934494 57.991253c14.497813 30.807853 67.052387 32.62008 81.5502 0l21.74672-55.309158a32.130779 32.130779 0 0 1 27.1834-18.992135h143.165906c50.0537 0 50.0537-74.301293 0-74.301294z m-279.082906 14.497814c-12.776198-6.79585-28.850649-10.637771-48.93012-10.87336H70.67684l-3.624453-795.567506h498.616044c45.051955 0 46.864182 48.93012 46.864182 70.67684z" fill="#FCA342" p-id="17363"></path><path d="M172.161533 262.629211h337.07416a25.371173 25.371173 0 0 0 0-50.742346H172.161533a25.371173 25.371173 0 0 0 0 50.742346zM172.161533 387.672851h337.07416a25.371173 25.371173 0 0 0 0-50.742347H172.161533a25.371173 25.371173 0 0 0 0 50.742347zM512.860146 461.974144H175.785987a25.371173 25.371173 0 0 0 0 50.742347h337.074159a25.371173 25.371173 0 0 0 0-50.742347zM512.860146 587.017784H175.785987a25.371173 25.371173 0 0 0 0 50.742347h337.074159a25.371173 25.371173 0 0 0 0-50.742347zM1136.266119 211.886865H799.191959a25.371173 25.371173 0 0 0 0 50.742346h337.07416a25.371173 25.371173 0 0 0 0-50.742346zM1161.637292 362.301678a25.371173 25.371173 0 0 0-25.371173-25.371174H799.191959a25.371173 25.371173 0 0 0 0 50.742347h337.07416a25.371173 25.371173 0 0 0 25.371173-25.371173zM799.191959 461.974144a25.371173 25.371173 0 0 0 0 50.742347h177.598213a25.371173 25.371173 0 0 0 0-50.742347zM1382.728945 668.567984l-77.925746 34.432307-81.5502-157.66372c-21.74672-36.244533-67.052387-39.868987-88.799107 1.812227l-79.737973 163.100399-83.362427-38.056759c-27.1834-12.685587-65.24016 18.122267-52.554573 50.742346l47.117893 170.349307c7.085806 17.50611 20.695629 24.483182 38.05676 25.371173h349.759747c22.000432-3.026419 37.513092-11.362661 41.681213-28.995627l50.742347-175.514152c9.061133-32.891914-25.371173-61.887541-63.427934-45.577501z m-19.934493 204.781613H1008.214183l-42.297371-137.729226 68.864614 32.62008c29.140605 11.326417 61.615707-9.061133 68.864613-25.371174s81.5502-168.53708 81.5502-168.537079l83.362427 172.161533c16.110695 21.076196 36.389511 27.781435 61.615706 19.934493l68.864613-30.807853z" fill="#FCA342" p-id="17364"></path></svg>