<?xml version="1.0" standalone="no"?><!DOCTYPE svg PUBLIC "-//W3C//DTD SVG 1.1//EN" "http://www.w3.org/Graphics/SVG/1.1/DTD/svg11.dtd"><svg t="1733122872062" class="icon" viewBox="0 0 1024 1024" version="1.1" xmlns="http://www.w3.org/2000/svg" p-id="8740" xmlns:xlink="http://www.w3.org/1999/xlink" width="200" height="200"><path d="M949.029 418.743c-25.6-31.086-53.029-65.829-64-96.914-9.143-27.429 1.828-60.343 10.971-91.429 12.8-38.4 25.6-76.8 3.657-109.714C857.6 56.686 738.743 51.2 725.943 51.2c-5.486 0-12.8 1.829-16.457 5.486C442.514 250.514 40.229 546.743 14.629 561.37 5.486 566.857 0 576 0 586.971v164.572c0 53.028 43.886 96.914 96.914 96.914h16.457V947.2c0 14.629 12.8 27.429 27.429 27.429s27.429-12.8 27.429-27.429v-98.743H484.57V947.2c0 14.629 12.8 27.429 27.429 27.429s27.429-12.8 27.429-27.429v-98.743H855.77V947.2c0 14.629 12.8 27.429 27.429 27.429s27.429-12.8 27.429-27.429v-98.743h12.8c53.028 0 96.914-43.886 96.914-96.914v-166.4c18.286-58.514-27.429-113.372-71.314-166.4z m-217.6-314.514c32.914 1.828 100.571 14.628 120.685 45.714 7.315 10.971-1.828 38.4-9.143 64-12.8 36.571-27.428 82.286-10.971 128 14.629 40.228 43.886 76.8 73.143 113.371 32.914 38.4 62.171 76.8 62.171 106.057H725.943v-268.8c0-14.628-12.8-27.428-27.429-27.428s-27.428 12.8-27.428 27.428v266.972H113.37C199.314 499.2 371.2 371.2 731.43 104.229z m234.057 647.314c0 23.771-20.115 42.057-42.057 42.057H96.914c-23.771 0-42.057-18.286-42.057-42.057V614.4h910.629v137.143z" fill="#5D65F9" p-id="8741"></path></svg>