<?xml version="1.0" standalone="no"?><!DOCTYPE svg PUBLIC "-//W3C//DTD SVG 1.1//EN" "http://www.w3.org/Graphics/SVG/1.1/DTD/svg11.dtd"><svg t="1733126719751" class="icon" viewBox="0 0 1024 1024" version="1.1" xmlns="http://www.w3.org/2000/svg" p-id="12922" xmlns:xlink="http://www.w3.org/1999/xlink" width="200" height="200"><path d="M984.015238 78.019048C744.106667 225.28 569.539048 411.550476 491.52 505.173333L299.398095 354.986667l-84.845714 68.266666L546.133333 760.685714c57.539048-146.285714 237.958095-432.030476 458.361905-635.855238L984.015238 78.019048z" p-id="12923"></path><path d="M902.095238 280.868571c39.984762 67.291429 63.390476 146.285714 63.390476 231.131429C965.485714 761.660952 761.660952 965.485714 512 965.485714S58.514286 761.660952 58.514286 512 262.339048 58.514286 512 58.514286c116.053333 0 222.354286 43.885714 302.32381 116.053333 14.628571-12.678095 30.232381-25.35619 45.83619-37.059048C769.462857 51.687619 646.582857 0 512 0 229.180952 0 0 229.180952 0 512S229.180952 1024 512 1024 1024 794.819048 1024 512c0-102.4-30.232381-197.973333-81.92-277.942857-13.653333 15.60381-27.306667 31.207619-39.984762 46.811428z" p-id="12924"></path></svg>