<?xml version="1.0" standalone="no"?><!DOCTYPE svg PUBLIC "-//W3C//DTD SVG 1.1//EN" "http://www.w3.org/Graphics/SVG/1.1/DTD/svg11.dtd"><svg t="1733126481796" class="icon" viewBox="0 0 1024 1024" version="1.1" xmlns="http://www.w3.org/2000/svg" p-id="3669" xmlns:xlink="http://www.w3.org/1999/xlink" width="200" height="200"><path d="M687.1552 195.584a25.2416 25.2416 0 0 1-18.5856-7.5264 67.072 67.072 0 0 1-12.544-17.5616 95.1808 95.1808 0 0 1-7.5264-20.48 78.7456 78.7456 0 0 1-2.5088-17.5616V8.7552h1.9968a70.1952 70.1952 0 0 1 17.0496 1.9968 68.5568 68.5568 0 0 1 19.6096 9.728 337.92 337.92 0 0 1 28.1088 21.0944q16.5888 13.568 41.6768 35.84 27.136 24.1152 43.2128 40.704a291.84 291.84 0 0 1 24.6272 28.1088 59.9552 59.9552 0 0 1 10.5472 19.6096 59.0848 59.0848 0 0 1 1.9968 14.08v15.6672h-147.6608z m312.32 473.088a75.8784 75.8784 0 0 1 3.9936 20.0704 28.9792 28.9792 0 0 1-10.24 23.0912q-5.12 5.12-9.0624 9.5232t-7.0144 7.5264a48.7424 48.7424 0 0 1-7.0144 6.0416l-85.3504-84.3776q6.0416-5.12 13.568-12.032t12.544-11.0592a32.4608 32.4608 0 0 1 26.112-9.5232 60.8768 60.8768 0 0 1 23.0912 6.5536 79.0016 79.0016 0 0 1 21.6064 17.5616 94.1056 94.1056 0 0 1 17.5616 26.624zM645.12 762.0608a57.6 57.6 0 0 0 37.1712-12.032l-195.0208 202.9056H209.92a95.7952 95.7952 0 0 1-41.5232-10.8544 176.1792 176.1792 0 0 1-42.1888-29.1328 165.0176 165.0176 0 0 1-32.6656-41.6768 99.4304 99.4304 0 0 1-13.056-48.6912V138.24a115.712 115.712 0 0 1 9.5232-44.1856 145.7664 145.7664 0 0 1 26.112-41.6768A159.6928 159.6928 0 0 1 153.6 21.3504a85.0944 85.0944 0 0 1 44.1856-12.544h384.6656v125.5424a157.0816 157.0816 0 0 0 6.0416 40.96 136.0384 136.0384 0 0 0 18.5856 40.6528 107.52 107.52 0 0 0 32.9216 31.3856 89.1392 89.1392 0 0 0 48.2304 12.544h146.6368v332.4416l-137.6256 142.6432A63.0784 63.0784 0 0 0 645.12 636.5184H268.3392a59.2896 59.2896 0 0 0-44.1856 18.8416 61.7984 61.7984 0 0 0-18.0736 44.6976 61.7472 61.7472 0 0 0 62.2592 62.2592H645.12zM268.3392 385.4336a59.2896 59.2896 0 0 0-44.1856 18.5856 61.7984 61.7984 0 0 0-18.0736 44.6976A61.7472 61.7472 0 0 0 268.3392 510.976H645.12a61.7984 61.7984 0 0 0 44.6976-18.0736 59.2896 59.2896 0 0 0 18.5856-44.1856A63.4368 63.4368 0 0 0 645.12 385.4336z m378.88 503.1936l13.056-13.056 25.088-25.088q15.0528-15.0528 33.1264-33.6384t36.1472-36.6592q43.2128-43.2128 97.28-96.4096L936.2432 768l-97.28 97.28-36.1472 36.1472-33.1264 33.1264q-14.08 14.08-23.6032 24.1152l-10.5472 11.0592q-5.12 3.9936-11.0592 8.5504a79.104 79.104 0 0 1-12.032 7.5264 185.4464 185.4464 0 0 1-18.5856 7.5264q-12.544 4.5056-25.6 8.5504t-25.088 7.0144q-12.032 3.0208-18.0736 3.9936-12.032 1.9968-16.0768-3.0208t-1.9968-17.0496q1.024-6.0416 3.9936-18.0736t7.0144-24.6272l7.5264-23.6032a122.112 122.112 0 0 1 5.5296-15.0528 79.5136 79.5136 0 0 1 16.0768-23.0912z" p-id="3670"></path></svg>